<?xml version="1.0" encoding="UTF-8"?>
<svg id="_图层_16" data-name="图层 16" xmlns="http://www.w3.org/2000/svg" viewBox="0 0 192 192">
  <defs>
    <style>
      .cls-1 {
        fill: #000;
        stroke-width: 0px;
      }
    </style>
  </defs>
  <path class="cls-1" d="M140.07,41.02c.4,1.3.51,2.67.31,4.01l-1.84,12.36c-.08,3.03-3.55,4.81-5.99,3-7.19-5.32-16.45-6.6-27.03-6.4-21.87.42-41.19,18.54-42.01,40.39-.9,23.93,18.24,43.61,41.96,43.61,10.33,0,19.79-3.73,27.1-9.91,2.57-2.17,6.5-.42,6.5,2.95v16.68c0,4.23-2.52,8.03-6.39,9.75-8.54,3.79-17.81,5.75-27.2,5.73-37.11,0-67.19-30.08-67.19-67.19S68.36,28.81,105.47,28.81c10.61-.02,21.05,2.49,30.48,7.29,1.98,1.01,3.46,2.8,4.12,4.92h0Z"/>
</svg>