<?xml version="1.0" encoding="UTF-8"?>
<svg id="_图层_14" data-name="图层 14" xmlns="http://www.w3.org/2000/svg" viewBox="0 0 192 192">
  <defs>
    <style>
      .cls-1 {
        fill: #000;
        stroke-width: 0px;
      }

      .cls-2 {
        fill: none;
        stroke: #000;
        stroke-miterlimit: 10;
        stroke-width: 8px;
      }
    </style>
  </defs>
  <path class="cls-2" d="M47.39,67.34l-13.71,81.8c-.25,1.46.56,2.9,1.87,3.34,9,3,44.08,12.88,97.9,5.55,1.25-.17,2.19-1.32,2.19-2.68l-1.74-22.76s14.18,3.48,25.93-1.19c0,0,10.14-2.86,11.57-17.53,0,0,.95-4.79.56-18.08-.04-1.34-.16-2.67-.37-3.98-.76-4.72-3.13-15-9.97-21.34,0,0-4.34-4.68-21.7-12.21,0,0-22.47-10.55-45.19-12.57,0,0-24.26-3.4-34.72,3.12,0,0-7.05,2.86-11.43,14.16-.54,1.4-.92,2.88-1.17,4.38Z"/>
  <path class="cls-2" d="M146.8,60.21s-9.29,2.41-16.49,4.33-12.57,7.69-12.97,14.38c-.07,1.13-.09,2.37-.04,3.71,0,0,1.14,17.61,4.56,28.17,0,0,4.1,15.2,9.4,20.34.62.6-.97,1.34-1.87,1.53-8.4,1.81-14.84,2.42-27.74.71"/>
  <rect class="cls-1" x="138.26" y="82.08" width="27.74" height="8.23" rx="4.12" ry="4.12" transform="translate(-10.9 23) rotate(-8.35)"/>
  <rect class="cls-1" x="138.59" y="98.61" width="32.04" height="7.21" rx="3.61" ry="3.61" transform="translate(256.82 -52.39) rotate(90)"/>
  <ellipse class="cls-1" cx="86.94" cy="78.2" rx="7.06" ry="4.13"/>
  <path class="cls-1" d="M94.26,74.31c-5.21-.54-10.47-.49-15.68.15-.51.06-.93-.32-.93-.87v-1c0-.55.42-1.04.93-1.09,5.21-.54,10.47-.49,15.68.15.51.06.93.51.93.99v.89c0,.48-.42.83-.93.77Z"/>
  <path class="cls-2" d="M47.7,64.85s-9.17-4.82-9.57-22.47c0,0-.02-4.76,5.4-3.36.48.12.94.33,1.42.44l21.18,4.98s-12.9,3.68-18.43,20.41Z"/>
  <path class="cls-2" d="M98.3,45.58l23.1-13.82s2.62-2.33,4.26,1.48c0,0,3.16,5.18,1.58,17.63"/>
</svg>