<?xml version="1.0" encoding="UTF-8"?>
<svg id="_图层_7" data-name="图层 7" xmlns="http://www.w3.org/2000/svg" viewBox="0 0 192 192">
  <defs>
    <style>
      .cls-1 {
        fill: #000;
        stroke: #000;
        stroke-miterlimit: 10;
        stroke-width: 4px;
      }
    </style>
  </defs>
  <path class="cls-1" d="M95.98,148.65c-1.09,0-2.15-.41-2.99-1.25l-12.63-12.63c-1.65-1.65-1.65-4.3,0-5.95s4.3-1.65,5.95,0l9.67,9.67,9.67-9.67c.79-.79,1.86-1.25,2.99-1.25h29.48c2.33,0,4.21-1.88,4.21-4.21V55.99c0-2.31-1.88-4.21-4.21-4.21H53.89c-2.31,0-4.21,1.9-4.21,4.21v67.37c0,2.33,1.9,4.21,4.21,4.21h12.63c2.33,0,4.21,1.88,4.21,4.21s-1.88,4.21-4.21,4.21h-12.63c-6.97,0-12.63-5.66-12.63-12.63V55.99c0-6.97,5.66-12.63,12.63-12.63h84.22c6.97,0,12.63,5.66,12.63,12.63v67.37c0,6.97-5.66,12.63-12.63,12.63h-27.76l-11.39,11.41c-.81.81-1.9,1.25-2.99,1.25Z"/>
  <path class="cls-1" d="M81.33,93.88c-3.49,0-6.32-2.83-6.32-6.32s2.83-6.32,6.32-6.32,6.32,2.83,6.32,6.32-2.83,6.32-6.32,6.32Z"/>
  <path class="cls-1" d="M113.99,93.88c-3.49,0-6.32-2.83-6.32-6.32s2.83-6.32,6.32-6.32,6.32,2.83,6.32,6.32-2.85,6.32-6.32,6.32Z"/>
</svg>