<?xml version="1.0" encoding="UTF-8"?>
<svg id="_图层_22" data-name="图层 22" xmlns="http://www.w3.org/2000/svg" viewBox="0 0 192 192">
  <defs>
    <style>
      .cls-1 {
        fill: #000;
        stroke-width: 0px;
      }
    </style>
  </defs>
  <path class="cls-1" d="M96.01,155.93c-10.44,0-20.73-2.73-29.74-7.9l-.11-.07c-.05-.03-.11-.07-.16-.09-.11-.07-.21-.12-.32-.19-8.81-5.17-16.21-12.58-21.38-21.38-5.34-9.09-8.18-19.51-8.22-30.11v-.58c.07-10.63,2.96-21.06,8.35-30.15,5.23-8.81,12.67-16.18,21.52-21.32,0,0,.01,0,.01-.01l.05-.04.12-.07c9.06-5.22,19.39-7.96,29.88-7.96s20.82,2.75,29.88,7.96l.04.03s.04.03.05.03h.03s.09.07.13.09c8.83,5.15,16.26,12.52,21.48,21.32,5.4,9.12,8.27,19.56,8.33,30.22v.43c-.04,10.6-2.88,21.01-8.2,30.11-5.17,8.83-12.58,16.25-21.4,21.44-.11.07-.21.13-.32.19-.05.03-.11.07-.16.09l-.11.07c-9.05,5.16-19.33,7.9-29.76,7.9h0ZM70.32,141.09c7.79,4.45,16.66,6.8,25.69,6.8s17.9-2.35,25.7-6.8c.09-.05.2-.12.29-.17.05-.03.11-.07.16-.09l.07-.04c15.79-9.28,25.62-26.41,25.66-44.7v-.08c0-.09,0-.24.01-.43-.15-18.29-10.07-35.33-25.91-44.5l-.46-.27c-7.75-4.37-16.56-6.69-25.5-6.69s-17.98,2.37-25.79,6.85l-.05.04-.11.07c-15.87,9.18-25.81,26.28-25.93,44.59v.52c.05,18.25,9.89,35.34,25.66,44.59l.07.04c.05.03.11.07.16.09.08.05.17.11.28.17h0ZM125.84,43.99s0,.01,0,0t0,0Z"/>
  <path class="cls-1" d="M112.27,124.09h-32.55l-16.26-28.18,16.26-28.19h32.55l16.28,28.19-16.28,28.18ZM84.36,116.05h23.27l11.64-20.14-11.64-20.15h-23.27l-11.62,20.15,11.62,20.14Z"/>
  <path class="cls-1" d="M112.27,75.76h-32.55l-16.29-28.22,1.8-2.99.91-.52c9.06-5.22,19.39-7.96,29.88-7.96s20.81,2.75,29.87,7.96l1.21.7,1.27,3.18-16.1,27.86ZM84.36,67.72h23.27l10.73-18.57c-6.94-3.31-14.6-5.04-22.35-5.04s-15.4,1.74-22.36,5.05c0,0,10.71,18.55,10.71,18.55ZM96.01,155.93c-10.44,0-20.73-2.73-29.74-7.9l-.95-.55-1.77-3.1,1.03-2.06,15.16-26.25h32.54l16.26,28.18-1.85,3.24-.95.55c-9.02,5.15-19.31,7.88-29.74,7.88ZM73.59,142.81c6.96,3.34,14.63,5.08,22.42,5.08s15.44-1.74,22.42-5.08l-10.78-18.69h-23.26l-10.79,18.69h0Z"/>
  <path class="cls-1" d="M125.37,148.27h-3.79l-16.26-28.19,16.28-28.19h32.55l1.8,3.15v1.07c-.03,10.62-2.86,21.05-8.19,30.16-5.19,8.83-12.59,16.26-21.44,21.45l-.94.55h0ZM114.59,120.07l10.78,18.7c12.88-8.89,21.16-23.26,22.36-38.85h-21.5l-11.64,20.15Z"/>
  <path class="cls-1" d="M154.04,99.93h-32.47l-16.26-28.19,16.28-28.19h3.49l.94.55c8.89,5.16,16.36,12.56,21.6,21.41,5.4,9.12,8.27,19.57,8.33,30.22v1.15l-1.89,3.06ZM126.21,91.89h21.5c-1.25-15.55-9.52-29.87-22.4-38.72l-10.73,18.57s11.62,20.15,11.62,20.15ZM70.47,148.27h-3.83l-.94-.55c-8.82-5.17-16.24-12.59-21.41-21.41-5.34-9.09-8.18-19.51-8.22-30.11v-1.13l1.9-3.18h32.5l16.2,28.05-1.03,2.06s-15.16,26.26-15.16,26.26ZM44.26,99.93c1.21,15.59,9.49,29.98,22.39,38.85l10.81-18.72-11.64-20.14h-21.56Z"/>
  <path class="cls-1" d="M70.47,99.93h-32.51l-1.92-3.19v-1.13c.08-10.63,2.98-21.06,8.37-30.15,5.24-8.83,12.71-16.22,21.6-21.36l.94-.54h3.53l16.29,28.18s-16.29,28.18-16.29,28.18ZM44.26,91.89h21.57l11.64-20.15-10.75-18.58c-12.9,8.83-21.2,23.15-22.46,38.73Z"/>
</svg>