<?xml version="1.0" encoding="UTF-8"?>
<svg id="_图层_2" xmlns="http://www.w3.org/2000/svg" version="1.1" viewBox="0 0 192 192">
  <!-- Generator: Adobe Illustrator 29.6.0, SVG Export Plug-In . SVG Version: 2.1.1 Build 207)  -->
  <defs>
    <style>
      .st0 {
        fill: none;
        stroke: #000;
        stroke-miterlimit: 10;
        stroke-width: 12px;
      }
    </style>
  </defs>
  <path class="st0" d="M171.19,83.79c-24.28-16.21-49.88-17.79-49.88-17.79,0,0,1.29,37.02-1.69,48.23-.08,1.53-1.86,11.86-6.78,24.84-1.71,4.44-3.79,8.73-6.21,12.82-5.83,10.56-12.64,18.42-13.91,19.85-.05.06.02.14.09.11,18.72-7.62,32.13-14.55,48.5-27.55,19.36-15.24,38.74-36.19,32.45-55.79l-2.57-4.72Z"/>
  <path class="st0" d="M72.02,77.7c24.92-15.89,48.64-12.42,49.2-11.78.08.08.16.08.16.08,0-2.26-1.05-9.6-2.1-16.78-1.67-8.62-3.46-17.56-3.86-20.27-.07-.44-.29-.85-.64-1.13-26.7-21.35-55.44-11.88-69.7,4.38-9.67,11.05-16.29,26.78-16.12,35.33v67.99c.08-2.02.24-3.23.32-3.23,2.82-31.05,45.14-56.08,45.14-56.08l-2.4,1.47v.02Z"/>
  <path class="st0" d="M144.86,58.26c-6.61-6.86-13.79-13.95-19.28-19.76-3.92-4.1-7.21-7.44-8.86-9.16-.34-.35-.93-.06-.86.42.51,3.48,1.92,11.64,3.43,19.47,1.05,7.18,2.02,14.6,2.1,16.78,0,0,25.52,1.57,49.8,17.78.89-3.19-13.1-11.81-26.33-25.53h0ZM106.71,151.9c-.4.16-31.3,16.86-46.06-4.84-3.31-4.84-5-10.73-5.24-16.78-.47-11.52-3.74-31.38,10.91-47.85.18-.2.23-.14,0,0-6.42,3.88-34.53,22.37-36.96,49.86-.27,1.05-.38,2.14-.32,3.23-.16,5.16.73,15.49,6.78,24.44,8.23,12.34,30.41,21.86,51.7,13.47l5.24-1.53"/>
</svg>