<?xml version="1.0" encoding="UTF-8"?>
<svg id="_图层_14" data-name="图层 14" xmlns="http://www.w3.org/2000/svg" viewBox="0 0 192 192">
  <defs>
    <style>
      .cls-1 {
        stroke-width: 8px;
      }

      .cls-1, .cls-2 {
        fill: none;
        stroke: #000;
        stroke-miterlimit: 10;
      }

      .cls-2 {
        stroke-width: 12px;
      }
    </style>
  </defs>
  <path class="cls-2" d="M116.52,136.79c.03,6.69-5.39,12.12-12.07,12.12h-46.42s-15.36.12-17.65-15.72c-.17-1.19-.22-2.4-.22-3.61V55.04s-.68-10.33,8.95-15.52c2.79-1.51,5.96-2.18,9.13-2.18h76.31s10.08-.25,15.2,10.13c1.49,3.03,2.16,6.41,2.16,9.79v10.1c0,3.9-3.16,7.06-7.06,7.06h-10.51c-3.72,0-6.73-3.01-6.73-6.73h0c0-3.54-2.87-6.42-6.42-6.42l-44.51-.06c-6.83,0-12.37,5.53-12.36,12.35l.04,40.88c0,5.63,4.57,10.19,10.2,10.19h29.75c6.73,0,12.19,5.43,12.22,12.16h0Z"/>
  <path class="cls-1" d="M85.76,88.15l19.86,19.72c1.3,1.29,3.06,2.02,4.89,2.02h15.05c1.07,0,1.94.87,1.94,1.94v15.45c0,1.83.73,3.58,2.02,4.87l18.59,18.58c1.4,1.4,3.79.41,3.79-1.57v-57.18c0-3.51-2.85-6.36-6.36-6.36h-58.74c-1.32,0-1.98,1.6-1.05,2.54Z"/>
</svg>