<?xml version="1.0" encoding="UTF-8" standalone="no"?>
<svg
   width="192"
   height="192"
   viewBox="0 0 192 192"
   fill="none"
   version="1.1"
   id="svg4"
   xml:space="preserve"
   xmlns="http://www.w3.org/2000/svg"
   xmlns:svg="http://www.w3.org/2000/svg"><defs
     id="defs4" /><g
     id="g4"
     style="display:none"><rect
       width="192"
       height="192"
       fill="#ffffff"
       id="rect1"
       x="0"
       y="0"
       style="display:inline" /><rect
       width="192"
       height="192"
       fill="#ffffff"
       id="rect2"
       x="0"
       y="0"
       style="display:inline" /><path
       d="M 192,192 H 0 V 0 H 192 Z M 22,16 c -3.3137,0 -6,2.6863 -6,6 v 148 c 0,3.314 2.6863,6 6,6 h 148 c 3.314,0 6,-2.686 6,-6 V 22 c 0,-3.3137 -2.686,-6 -6,-6 z"
       fill="#eaa6a7"
       id="path2"
       style="display:inline" /><rect
       x="16.5"
       y="16.5"
       width="159"
       height="159"
       rx="5.5"
       stroke="#3b8aff"
       id="rect3"
       style="display:inline" /><circle
       cx="96"
       cy="96"
       r="79.5"
       stroke="#3b8aff"
       id="circle3"
       style="display:inline" /><rect
       x="19.5"
       y="19.5"
       width="153"
       height="153"
       rx="5.5"
       stroke="#ff9900"
       id="rect4"
       style="display:inline" /></g><g
     style="fill:none"
     id="g5"
     transform="matrix(1.6425775,0,0,4.8694375,22.233891,-152.70918)"><path
       d="m 10.8107,47.9117 1.3782,0.1641 c 0.6235,0.0656 0.6892,0.5907 0.6892,0.9189 v 1.6079 H 6.54457 v -1.6079 c 0,-0.3282 0.06563,-0.8533 0.68913,-0.9189 L 8.61198,47.9117 V 46.5334 H 0.407959 v 1.3783 l 1.378271,0.1641 c 0.62351,0.0656 0.68914,0.5907 0.68914,0.9189 v 5.3162 c 0,0.3281 -0.06563,0.8532 -0.68914,0.9188 l -1.378271,0.1641 v 1.3783 H 8.61198 V 55.3938 L 7.2337,55.2297 C 6.6102,55.1641 6.54457,54.639 6.54457,54.3109 v -1.608 h 6.30073 v 1.608 c 0,0.3281 -0.0657,0.8532 -0.6892,0.9188 l -1.3783,0.1641 v 1.3783 h 8.2041 V 55.3938 L 17.6036,55.2297 C 16.9801,55.1641 16.9144,54.639 16.9144,54.3109 v -5.3162 c 0,-0.3282 0.0657,-0.8533 0.6892,-0.9189 l 1.3783,-0.1641 v -1.3783 h -8.2041 v 1.3783 z"
       fill="#000000"
       id="path1" /><path
       d="M 65.4494,46.5334 H 55.3421 v 1.3783 l 1.2142,0.1313 c 0.4266,0.0656 0.7219,0.2297 0.7219,0.8204 v 5.4146 c 0,0.3282 -0.0656,0.8533 -0.6891,0.9189 l -1.3783,0.1641 v 1.3782 h 10.2386 c 3.6754,0 6.6945,-1.4767 6.6945,-5.1193 0,-3.6425 -3.0191,-5.0865 -6.6945,-5.0865 m -0.7547,8.2697 H 61.249 v -6.3007 h 3.4457 c 2.0346,0 2.7237,0.9517 2.7237,3.1504 0,2.1658 -0.6891,3.1503 -2.7237,3.1503 z"
       fill="#000000"
       id="path2-4" /><path
       d="M 89.3396,55.2297 C 88.6833,55.1641 88.4864,54.7375 88.2895,54.4421 L 83.564,47.2226 c -0.3282,-0.5251 -0.5907,-0.6892 -1.0829,-0.6892 h -7.7446 v 1.3783 l 1.8705,0.1969 c 0.2625,0.0328 0.6235,0.3938 0.3282,0.8532 l -3.5114,5.6772 c -0.1312,0.2297 -0.3281,0.4923 -0.7219,0.5579 l -1.3783,0.1641 v 1.3782 H 77.854 V 55.361 L 76.7383,55.2625 C 76.246,55.1969 75.9835,54.8687 76.246,54.4749 l 0.5251,-0.8532 h 6.3007 l 0.4594,0.6892 c 0.4266,0.6235 -0.0985,0.886 -0.5579,0.9188 l -1.1485,0.1313 v 1.3782 h 8.8603 V 55.361 Z m -11.4856,-3.4129 1.9362,-3.1503 2.0674,3.1503 z"
       fill="#000000"
       id="path3" /><path
       d="m 48.024,47.9112 1.3783,0.1641 c 0.6235,0.0656 0.6891,0.5907 0.6891,0.9188 v 5.1194 L 44.6768,46.9596 C 44.447,46.6314 44.2173,46.5329 43.6266,46.5329 H 36.604 v 1.3783 l 1.3783,0.1641 c 0.6235,0.0656 0.6891,0.5907 0.6891,0.9188 v 5.3162 c 0,0.3282 -0.0656,0.8533 -0.6891,0.9189 l -1.3783,0.1641 v 1.3783 h 6.5632 V 55.3933 L 41.7889,55.2292 C 41.1654,55.1636 41.0998,54.6385 41.0998,54.3103 V 49.191 l 5.4147,7.1211 c 0.2625,0.3282 0.4594,0.4266 1.0501,0.4266 h 0.0656 4.9224 v -7.7774 c 0,-0.3281 0.0656,-0.8532 0.6892,-0.9188 L 54.62,47.8784 v -1.3783 h -6.5304 z"
       fill="#000000"
       id="path4" /><path
       d="m 27.7765,46.172 c -6.6616,0 -8.3681,2.9206 -8.3681,5.4475 0,2.5268 1.7065,5.4803 8.3681,5.4803 6.6617,0 8.3681,-2.9207 8.3681,-5.4475 0,-2.5597 -1.7064,-5.4803 -8.3681,-5.4803 z m 0,8.9916 c -2.5924,0 -3.6425,-1.0829 -3.6425,-3.5113 0,-2.4284 1.0829,-3.5113 3.6425,-3.5113 2.5925,0 3.6426,1.0829 3.6426,3.5113 0,2.4284 -1.0501,3.5113 -3.6426,3.5113 z"
       fill="#000000"
       id="path5" /></g></svg>
