<?xml version="1.0" encoding="UTF-8" standalone="no"?>
<svg
   width="192"
   height="192"
   viewBox="0 0 192 192"
   fill="none"
   version="1.1"
   id="svg4"
   xml:space="preserve"
   xmlns="http://www.w3.org/2000/svg"
   xmlns:svg="http://www.w3.org/2000/svg"><defs
     id="defs4" /><g
     id="g4"
     style="display:none"><rect
       width="192"
       height="192"
       fill="#ffffff"
       id="rect1"
       x="0"
       y="0"
       style="display:inline" /><rect
       width="192"
       height="192"
       fill="#ffffff"
       id="rect2"
       x="0"
       y="0"
       style="display:inline" /><path
       d="M 192,192 H 0 V 0 H 192 Z M 22,16 c -3.3137,0 -6,2.6863 -6,6 v 148 c 0,3.314 2.6863,6 6,6 h 148 c 3.314,0 6,-2.686 6,-6 V 22 c 0,-3.3137 -2.686,-6 -6,-6 z"
       fill="#eaa6a7"
       id="path2"
       style="display:inline" /><rect
       x="16.5"
       y="16.5"
       width="159"
       height="159"
       rx="5.5"
       stroke="#3b8aff"
       id="rect3"
       style="display:inline" /><circle
       cx="96"
       cy="96"
       r="79.5"
       stroke="#3b8aff"
       id="circle3"
       style="display:inline" /><rect
       x="19.5"
       y="19.5"
       width="153"
       height="153"
       rx="5.5"
       stroke="#ff9900"
       id="rect4"
       style="display:inline" /></g><g
     style="fill:none"
     id="g5"
     transform="matrix(-2.8963218,0,0,3.2491838,227.53373,32.190516)"><path
       d="m 56.8845,3.38037 c -1.1157,5.02086 -1.5752,7.35083 -2.494,10.96053 -0.8861,3.4785 -1.5752,6.7273 -2.7566,8.3025 -1.1814,1.608 -2.7893,1.9362 -3.8723,2.0674 -0.5578,0.0657 -0.9845,0.0985 -2.1986,0.0985 -1.2142,0 -1.6409,-0.0328 -2.1987,-0.0985 -1.083,-0.1312 -2.6909,-0.4594 -3.8723,-2.0674 -1.1814,-1.5752 -1.8705,-4.824 -2.7238,-8.3025 -0.9188,-3.6425 -1.3782,-5.93967 -2.494,-10.96053 0,0 -1.1157,0.03282 -1.608,0.06563 -0.6891,0.03282 -1.2142,0.09845 -1.772,0.16408 0,0 0.6563,10.33702 0.9516,14.73442 0.2954,4.5943 0.8532,12.3717 1.3455,18.2457 0,0 0.9517,0.1641 2.5268,0.2298 1.6408,0.0984 2.3956,0.0984 2.3956,0.0984 0.6891,-2.5925 1.5095,-6.1694 2.4612,-7.7118 0.7876,-1.247 1.969,-1.3783 2.6581,-1.4767 1.0501,-0.1313 1.969,-0.1641 2.3628,-0.1641 0.4266,0 1.3126,0 2.3627,0.1641 0.6892,0.0984 1.8705,0.2297 2.6581,1.4767 0.9517,1.5424 1.8049,5.1193 2.4612,7.7118 0,0 0.722,0 2.3628,-0.0984 1.5752,-0.0985 2.5268,-0.2298 2.5268,-0.2298 0.4923,-5.874 1.0501,-13.6186 1.3455,-18.2457 C 59.6082,13.98 60.2646,3.61008 60.2646,3.61008 59.7067,3.54445 59.1488,3.47882 58.4925,3.446 58.0002,3.41319 56.8845,3.38037 56.8845,3.38037 Z"
       fill="#000000"
       id="path6" /><path
       d="M 69.9124,9.48385 C 69.2561,2.92063 64.8588,1.54236 61.0193,0.886034 59.0831,0.557873 55.6375,0.295344 53.4388,0.196896 51.5026,0.0656318 46.974,0 45.5957,0 44.2175,0 39.6888,0.0656321 37.7527,0.196896 35.554,0.295344 32.1083,0.557873 30.1722,0.886034 26.3327,1.54236 21.9353,2.92063 21.279,9.48385 c -0.1969,1.80485 -0.2297,4.13485 -0.1969,6.62885 0.0657,4.1676 0.4266,6.957 0.6235,8.926 0.1313,1.3454 0.6892,5.349 1.4111,7.4164 0.9845,2.855 1.8705,3.6754 2.9207,4.5286 1.9033,1.5424 5.0536,2.0346 5.71,2.1659 3.5441,0.6235 10.698,0.7548 13.8812,0.7548 3.1503,0 10.337,-0.0985 13.8812,-0.7548 0.6563,-0.1313 3.8066,-0.5907 5.7099,-2.1659 1.0502,-0.8532 1.9362,-1.6736 2.9207,-4.5286 0.7219,-2.0674 1.2798,-6.1038 1.4111,-7.4164 0.1969,-1.9362 0.5578,-4.7584 0.6235,-8.926 -0.0328,-2.5268 -0.0985,-4.8568 -0.2626,-6.62885 M 67.4841,20.51 c -0.3938,5.2506 -0.8533,8.401 -1.5096,10.6653 -0.5907,2.0018 -1.3126,3.3144 -2.3627,4.2661 -1.7721,1.608 -4.2005,1.9361 -5.6444,2.1658 -3.0847,0.4594 -8.3025,0.6235 -12.3717,0.6235 -4.102,0 -9.2869,-0.1641 -12.3716,-0.6235 C 31.7802,37.3775 29.3518,37.0494 27.5797,35.4414 26.5296,34.4897 25.8076,33.1442 25.217,31.1753 24.5606,28.911 24.0684,25.7606 23.7074,20.51 23.4777,17.3597 23.5105,12.2404 23.8715,9.48385 24.3637,5.34902 26.3983,3.28161 30.7629,2.52684 32.7975,2.16586 35.554,1.90333 38.1465,1.77207 c 2.1002,-0.13127 5.5131,-0.1969 7.4492,-0.1969 1.9034,-0.03281 5.3491,0.06563 7.4165,0.1969 2.5924,0.13126 5.349,0.39379 7.3836,0.75477 4.3645,0.78758 6.3991,2.855 6.9242,6.95701 0.361,2.72375 0.3938,7.84305 0.1641,11.02615 z"
       fill="#000000"
       id="path7" /></g></svg>
