<?xml version="1.0" encoding="UTF-8"?>
<svg id="_图层_20" data-name="图层 20" xmlns="http://www.w3.org/2000/svg" viewBox="0 0 192 192">
  <defs>
    <style>
      .cls-1 {
        fill: #000;
        stroke-width: 0px;
      }
    </style>
  </defs>
  <g>
    <path class="cls-1" d="M87.33,120.84c-.73-.39-1.37-.89-1.97-1.44-.39-.27-.79-.53-1.2-.75-.9-.47-1.74-.93-2.55-1.48-.71,2.29-1.24,4.41-1.54,6.35l-.6,1.11c-1.76-7.87-2.98-13.77-3.64-17.72l.38-.26c-.2-.31-.44-.81-.75-1.51l.38-.38h.27c-.36-.07-.55-.26-.56-.58l-.21-1.42-.28-.34h.26s-.02-.37-.02-.37l.13-.13c-.29-.38-.86-1.98-1.73-4.8l.75-.88c-.65-.6-1.11-1.65-1.37-3.15-.13-.71-.24-1.86-.32-3.45l.25-.37-.74-6.17-.55-.33c-.1-.23-.17-.59-.19-1.06-1.13-1.21-2.02-2.08-2.67-2.6l-.17-.59c-1.39-1.04-2.46-2.01-3.22-2.93l-1.3.55c-.36-.06-.85-.07-1.46-.04-2.12.12-4.03.86-5.73,2.23-2.13,1.63-3.37,2.46-3.72,2.47-.62.03-1.29-.13-2.02-.49-.91-.51-1.59-.75-2.03-.72l-.11.48c.02.4.36.9,1.01,1.5.66.76,1.01,1.38,1.03,1.85l.02.36-.4.02c-.97.05-2.1-.36-3.39-1.25-1.21-.97-2.22-1.67-3.04-2.1.21.63.98,1.66,2.3,3.1,1.32,1.52,2.14,2.71,2.46,3.57-1.47-.95-2.96-2.18-4.46-3.7-.65-.6-1.84-2.13-3.58-4.58-.08.09-.12.29-.1.6.04.64,1.21,2.64,3.52,6.02,2.32,3.46,3.5,5.54,3.54,6.26.09,1.59-.3,2.69-1.15,3.29l-.08,3.35c.03.56.65,1.76,1.86,3.6,1.21,1.85,2.18,2.95,2.91,3.3.7,1.48,1.11,2.49,1.23,3.04l.67.08c2.75,1.68,4.58,2.77,5.5,3.28,1.46,2.47,2.74,5.42,3.81,8.87l2.9,9.28c1.2,4.08,2.57,8.1,4.12,12.08l-.24.37c-.08.24-.1.6-.07,1.08l.03.6c.69,1.24,1.14,2.25,1.36,3.03,2,2.6,3.28,4.12,3.84,4.57,1.76,1.42,3.61,2.07,5.56,1.96.53-.03.93-.09,1.18-.18,1.81-2.41,2.68-4.41,2.59-6l-.04-.71-.03-.6c-.06-1.11.18-2.36.72-3.74.47-1.14,1.93-6.72,4.39-16.73.35-1.44.72-2.78,1.1-4.07-.98.05-1.99-.15-2.86-.62Z"/>
    <path class="cls-1" d="M105.09,90.48c-.04-.7-.04-1.34,0-1.91-2.62-1.72-5.86-3.36-8.88-2.61-2.56.63-4.44,2.13-6.98,2.55l-.19,2.26-.25.25.55.33c-1.13,3.57-1.89,6.76-2.26,9.56l.43.57c-.26.09-.67.79-1.21,2.1-.23.65-.45,1.58-.64,2.78l-.13.13h-.13s.14.12.14.12l.15.23c-.08.17-.15.34-.23.51.04,0,.09,0,.13.01,1.09.18,2.14.65,3.07,1.29.47.12.93.3,1.42.55.59.31,1.19.82,1.68,1.22.03.02.09.07.15.11.85.29,1.69.59,2.52.91.44-.73.89-1.43,1.36-2.05l.28.34.03.6-.11.36.41.46c3.64-.74,7.37-1.33,11.06-1.8l-.4-2.73c-1.21-9.01-1.86-14.39-1.95-16.14Z"/>
    <path class="cls-1" d="M150.03,78.8l-.03-.48.11-.37-.02-.36.12-.24.25-.25c-.39-.62-.92-1.76-1.59-3.44-.67-1.68-.98-2.83-.92-3.47l.04-1.67-.26.13-1.4,1.15c-1.13-1.13-1.71-2.17-1.77-3.13l.15-2.04c-1.1.94-1.68,1.69-1.74,2.25-.1-.23-.16-.51-.18-.83-.03-.48.29-1.17.95-2.08.5-.66.81-1.28.96-1.84-1.7,1.29-2.67,2.1-2.92,2.43-1.81.9-3.02,1.44-3.63,1.63-.2-.47-.3-.74-.31-.82-.03-.55.29-1.05.98-1.49l-.29-.34-.26.13-.12.25-2.15,1.91c-.93.85-1.66,1.29-2.19,1.32l-.53.03c-.61.11-1.41.88-2.4,2.28-.91,1.24-1.83,2.09-2.78,2.54.46.37.72,1,.77,1.87l-1.26,3.65c-3.18,9.73-6.22,18.86-9.12,27.38-1.99,5.77-3.62,9.88-4.9,12.34-2,3.93-2.99,6.9-2.96,8.89-.47-.88-1.04-3.22-1.71-7-.13.02-.25.06-.38.07-3.37.42-6.81,1.02-10.14,1.72.17.85.35,1.72.53,2.63.65,3.79,1.02,6.36,1.09,7.7.5,2.6.79,4.62.86,6.05l.12,4.53.29.46c1.1,3.92,2.82,7.73,5.15,11.42,2.19,1.07,3.63,1.67,4.35,1.79l.79-.16.4.1.51-.39.52-.15.4.1,1.19-.19.67.08c.83-1.08,1.3-2.02,1.44-2.83.2-1.13.28-2.17.23-3.12.78-3.55,1.63-6.5,2.57-8.86,1.49-3.51,2.53-6.31,3.12-8.42,1.01-2.6,1.73-4.75,2.17-6.45,1.41-4.94,3.56-10.07,6.46-15.41.88-1.72,1.43-3.07,1.64-4.03,2.03-9.67,6.33-15.28,12.89-16.84l1.07.18c1.96-1.46,3.1-3.28,3.42-5.45.33-2.09.58-3.18.75-3.27-.65-.52-.99-1.06-1.02-1.62Z"/>
  </g>
  <path class="cls-1" d="M123.62,46.27c.81,1.52,1.25,2.68,1.34,3.46.04.91.06,2.15.05,3.74-.11.68-.3,1.68-.58,2.99l-.27.03c-1.56.17-3.1,1.38-4.62,3.61-1.15,1.71-2.53,4.11-4.13,7.21-1.08,1.28-2.32,3.48-3.74,6.62-3.31,7.49-6.12,14.58-8.41,21.29-.46,1.33-.92,2.7-1.37,4.12-.45,1.42-.69,2.83-.72,4.23-1.18.37-2.26,1.32-3.25,2.82-1.58-.5-2.79-1.24-3.63-2.25-.63-.78-1.46-2.18-2.47-4.2l.06-.28c-.29-.45-.66-1.3-1.1-2.53l.13-.47-.14-1.26c-.45-.8-.91-2.18-1.37-4.14-.34-1.42-1.59-5.03-3.75-10.81-2.25-6.02-3.67-9.39-4.27-10.12-.6-.72-1.3-1.19-2.12-1.41-.17-.41-.53-.98-1.1-1.7l-.46-.04c-.72-1.56-1.44-2.55-2.15-2.96.13-.44.12-1.35-.03-2.74-.05-.48-.23-1.14-.54-1.99-.31-.85-.49-1.51-.54-2l.71.65c.09-.31.21-.81.38-1.5-2.24-4.86-3.48-8.32-3.7-10.36.21.77.82,2.18,1.84,4.22,1.02,2.05,1.78,3.13,2.28,3.26l.36-.04c-.68-1.2-1.62-3.08-2.81-5.62l.25-.21.29.15c.99,1.84,1.98,3.31,2.95,4.42l.34-.22c-.05-.42-.26-.99-.65-1.71-.38-.72-.6-1.26-.64-1.62l-.02-.18.36-.04c.46.86,1.05,1.56,1.78,2.08.77-.75,1.29-1.51,1.57-2.27.54-.12,1.3-.33,2.3-.62,1.36.16,2.32.9,2.89,2.24.57,1.28,1.15,2.52,1.74,3.73.59,1.21,1.14,2.46,1.65,3.74.11.41.35.97.73,1.65l-.03.55.48,1.87-.18.02.14.44-.1.74c.13,1.14.44,2.33.94,3.55v.91c.22.22.36.57.44,1.05.08.48.16.8.24.98.1.9.29,1.79.57,2.68.93,2.33,2.13,5.82,3.62,10.46.34,1.42.58,2.22.72,2.39.29.39.57.73.84,1,1.11-3.23,2.83-7.46,5.17-12.71,2.74-6.08,4.52-10.27,5.37-12.55,0-.55.54-2.04,1.61-4.47.11-.68.37-1.62.78-2.83.8-1.55,1.77-4.03,2.92-7.44.27-.88.36-1.71.27-2.49l-.13-.35-.4-.32c2.17-1.88,2.94-3.94,2.33-6.19l.45-.05c-.02.37,0,.73.03,1.09.07.66.31,1.46.72,2.39.29-.15.53-.42.73-.81.06,0,.17-.41.32-1.22v-.09s.17-.02.17-.02l.11.17c-.04.19-.05.34-.04.46.11.96.75,1.53,1.92,1.71l.15-1.11c.16.35.37.87.63,1.57.45.26.99.96,1.6,2.1l.17-.11c.11-.13.22-.24.33-.31.13.05.23.13.3.24.11.96.56,2.2,1.37,3.73Z"/>
</svg>