<?xml version="1.0" encoding="UTF-8"?>
<svg id="_图层_1" xmlns="http://www.w3.org/2000/svg" version="1.1" viewBox="0 0 192 192">
  <!-- Generator: Adobe Illustrator 29.6.0, SVG Export Plug-In . SVG Version: 2.1.1 Build 207)  -->
  <defs>
    <style>
      .st0 {
        stroke: #000;
        stroke-miterlimit: 10;
        stroke-width: 4px;
      }
    </style>
  </defs>
  <g id="_图层_6">
    <path class="st0" d="M144.6,72.4c4.2-3.8,9.8-5.8,13.3-4.1,2.8,1.8,4.6,4.9,4.9,8.1.07.74-.08,2.44-1.3,3.3-.62.44-1.28.49-1.75.53-1.63.12-2.91-.66-3.45-1.04-.57-.1-1.41-.18-2.41-.02-1.36.22-2.35.78-2.89,1.14,6.11,11.55,6.9,21.17,6.9,26.3,0,7.32-1.89,10.53-2.6,12.3-2.8,7-6.9,11.2-12.2,9.2-.5.6-1.1,1-1.6,1.4-8.8,7.1-19.7,11.2-31,11.8h-3.7c-17.2,0-28.2-7.3-29.9-14.6-.2-.8-.3-1.6-.4-2.5-1.5-10.8.3-24.1,8.1-37.9,3.5-6.2,8.3-11.7,14-16.1.3-.2.6-.4.8-.6-.3-1.3-.2-2.7.3-3.9.7-1.3,1.7-2.4,3.1-3.2,2.02-1.15,5.46-2.07,6.4-2.2,3.44-.46,20.52-2.4,35.4,12.1h0ZM104.9,53.26c1.88.6,3.25,1.9,3.45,3.42.04.34.05.83-.15,1.42l-.3.5c-.7,1-2,1.4-3.2,1l-.5-.3c-9.6-6.5-22.7-4-29.2,5.7-1.2,1.7-2.1,3.6-2.7,5.6-.3,1.1-1.4,1.9-2.6,1.9h-.5c-.9-.2-1.8-.3-2.7-.3-7,0-12.8,5.4-13.5,12.4v2.2c0,1.1-.4,2.1-1.4,2.6l-.6.2c-9.7,2.5-16.4,11.3-16.3,21.3,0,5.8,2.2,11.4,6.3,15.5,4.2,4.1,9.8,6.4,15.6,6.4h19.1c1.5,0,2.6,1.2,2.6,2.6s-1.2,2.6-2.6,2.6h-19.1c-7.3,0-14.2-2.8-19.4-7.9-10.6-10.6-10.7-27.8-.1-38.4,2.9-2.9,6.5-5.2,10.4-6.5.2-9.7,7.8-17.6,17.5-18.3h3c.82-1.73,5.22-10.56,15.83-14.41,10.4-3.77,19.27-.04,21.07.77h0ZM103.9,73.7c-.8.1-1.6.5-2.3,1.1-5.1,3.9-9.4,8.8-12.6,14.4-7.1,12.7-8.9,24.7-7.6,34.4.1,1,.3,1.7.3,1.9,1.3,4.4,11.1,10.3,24.7,10.5h3.6c10.1-.5,19.8-4.2,27.7-10.5l.3-.3c1.8-1.3,2.1-2.3,1.2-5.3-2.9-9-7.5-17.3-13.6-24.5-3.5-4.4-7.2-8.7-11.2-12.7-3.2-3.2-6.6-6.2-10.3-8.9,0,0-.2,0-.3-.1,0,0,.1,0,.1,0ZM120.1,66.4c-3.2-.5-6.3-.5-9.5-.2-2.1,0-4.1.8-5.7,2h0v.2h.2c.9.2,1.7.5,2.5,1,4,2.8,7.7,6,11.1,9.5,4,4.2,7.8,8.6,11.4,13.1,6.7,7.7,11.7,16.7,14.8,26.5.5,1.6.6,3.2.5,4.8,1.1.2,2.2-1,3.2-3.3.2-.5.5-1.1.7-1.7l.5-1.4c1.3-3.4,2-7,2.2-10.7.6-8.2-1.6-16.4-6.1-23.3-.4-.6-.8-1.2-1.2-1.7-6-7.9-14.8-13.3-24.6-14.9h0v.1h0ZM120.1,66.4h0ZM155.26,71.64c-1.16-.01-2.91.12-4.85.89-1.07.42-1.94.93-2.6,1.4.63.81,1.27,1.62,1.9,2.43.42-.35,1.02-.76,1.79-1.09,1.36-.58,2.6-.61,3.32-.58.65-.06,1.2-.45,1.4-1,.27-.74-.11-1.67-.96-2.06h0Z"/>
  </g>
</svg>