<?xml version="1.0" encoding="UTF-8"?>
<svg id="_图层_1" data-name="图层 1" xmlns="http://www.w3.org/2000/svg" version="1.1" viewBox="0 0 192 192">
  <defs>
    <style>
      .cls-1, .cls-2 {
        fill: none;
        stroke: #000;
        stroke-width: 12px;
      }

      .cls-2 {
        stroke-linejoin: round;
      }
    </style>
  </defs>
  <path class="cls-1" d="M113,22.6s.6,61.8-3.4,90.2c-4,28.3-38,45.4-38,45.4"/>
  <path class="cls-2" d="M84.1,103.6c7.1-18.6,5.5-57.9,4.5-74.2-.2-4,2.9-7.4,6.9-7.4h31.6c3.6,0,6.5,2.8,6.7,6.3.9,17.6,2.5,67.5-4.9,92.9-8,27.5-30.1,41.3-43.8,48.1-2.9,1.4-6.3.5-8.2-2.1l-18.1-24.5c-2.3-3.1-1.5-7.3,1.8-9.4,7.3-4.5,16.6-11.5,23.5-29.7Z"/>
</svg>