<?xml version="1.0" encoding="UTF-8"?>
<svg id="_图层_17" data-name="图层 17" xmlns="http://www.w3.org/2000/svg" viewBox="0 0 192 192">
  <defs>
    <style>
      .cls-1 {
        stroke-width: 11px;
      }

      .cls-1, .cls-2, .cls-3 {
        fill: none;
        stroke: #000;
        stroke-miterlimit: 10;
      }

      .cls-2 {
        stroke-width: 12px;
      }

      .cls-3 {
        stroke-width: 10px;
      }
    </style>
  </defs>
  <path class="cls-2" d="M100.36,148.9c-33.87,7.59-67.84-23.99-67.84-56.64s26.47-59.12,59.12-59.12,68.67,28.56,57.87,69.14c-31.32.09-48.36,19.86-49.14,46.61Z"/>
  <path class="cls-3" d="M100.17,133.12s-9.34-4.57-6.47-18.03c0,0-19.11-12-25.17-47.03,0,0,28.03,1.95,45.71,25.62,0,0,15-2.74,19.5,7.36"/>
  <path class="cls-1" d="M157.12,158.72l-23-9.61c-4.36-1.82-8.07-5.04-10.17-9.27-2.66-5.36-2.43-11.23,3.62-15.81,4.15-2.95,8.39-2.55,12.35-.72,4.58,2.12,8.13,5.96,10.24,10.55,3.32,7.21,7.21,17.35,9.22,22.71.52,1.39-.87,2.73-2.25,2.15Z"/>
</svg>