<?xml version="1.0" encoding="UTF-8"?>
<svg id="_图层_1" data-name="图层 1" xmlns="http://www.w3.org/2000/svg" version="1.1" viewBox="0 0 192 192">
  <defs>
    <style>
      .cls-1 {
        fill: #000;
        stroke-width: 0px;
      }

      .cls-2 {
        fill: none;
        stroke: #000;
        stroke-linejoin: round;
        stroke-width: 12px;
      }
    </style>
  </defs>
  <rect class="cls-2" x="134.3" y="77.6" width="26.2" height="69.2" rx="12.4" ry="12.4" transform="translate(-36 86) rotate(-29.2)"/>
  <path class="cls-2" d="M70.7,52h0c7.1,3.2,10.2,11.5,7,18.6l-30.1,66.5c-3.2,7.1-11.5,10.2-18.6,7h0c-7.1-3.2-10.2-11.5-7-18.6l30.1-66.5c3.2-7.1,11.5-10.2,18.6-7Z"/>
  <path class="cls-2" d="M59,52.3h0c7-3.3,15.4-.4,18.7,6.6l31.5,65.9c3.3,7,.4,15.4-6.6,18.7h0c-7,3.3-15.4.4-18.7-6.6l-31.5-65.9c-3.3-7-.4-15.4,6.6-18.7Z"/>
  <circle class="cls-1" cx="120.3" cy="59.6" r="12.9"/>
</svg>