<?xml version="1.0" encoding="UTF-8"?>
<svg id="_图层_4" data-name="图层 4" xmlns="http://www.w3.org/2000/svg" viewBox="0 0 192 192">
  <defs>
    <style>
      .cls-1 {
        fill: #000;
        stroke: #000;
        stroke-miterlimit: 10;
        stroke-width: 3px;
      }
    </style>
  </defs>
  <path class="cls-1" d="M80.35,86.05v47.5c0,10.46-8.48,18.93-18.93,18.93s-18.93-8.48-18.93-18.93,8.48-18.93,18.93-18.93c3.19,0,6.2.79,8.84,2.18v-34.91c0-.06,0-.12,0-.18v-25.15c0-2.46,1.77-4.55,4.19-4.97l69.17-11.99c3.09-.54,5.91,1.84,5.91,4.97v25.16c0,.06,0,.12,0,.18v51.52c0,10.46-8.48,18.93-18.93,18.93s-18.93-8.48-18.93-18.93,8.48-18.93,18.93-18.93c3.19,0,6.2.79,8.84,2.18v-28.87l-59.07,10.24ZM80.35,75.8l59.07-10.24v-15l-59.07,10.24v15h0ZM61.42,142.38c4.88,0,8.84-3.96,8.84-8.84s-3.96-8.84-8.84-8.84-8.84,3.96-8.84,8.84,3.96,8.84,8.84,8.84ZM130.58,130.27c4.88,0,8.84-3.96,8.84-8.84s-3.96-8.84-8.84-8.84-8.84,3.96-8.84,8.84,3.96,8.84,8.84,8.84Z"/>
</svg>