<?xml version="1.0" encoding="UTF-8"?>
<svg id="_图层_6" data-name=" 图层 6" xmlns="http://www.w3.org/2000/svg" version="1.1" viewBox="0 0 192 192">
  <defs>
    <style>
      .cls-1 {
        stroke-width: 12px;
      }

      .cls-1, .cls-2 {
        fill: none;
        stroke: #000;
        stroke-miterlimit: 10;
      }

      .cls-2 {
        stroke-width: 3px;
      }
    </style>
  </defs>
  <path class="cls-1" d="M45.5,55.6c-1.3,0-2.4,1.1-2.4,2.4v64.7c0,1.3,1.1,2.4,2.4,2.4h28.7c.5,0,2.3.2,2.7.5l11.3,13.4c1.3,1.6,3.9,1,4.4-1.1l2.3-10.3c0-1.3,1.9-2.5,3.2-2.5h50.5c1.3,0,2.4-1.1,2.4-2.4V57.9c0-1.3-1.1-2.4-2.4-2.4H45.5Z"/>
  <path class="cls-2" d="M127,105.4l.4-33.7c0-.9-.7-1.5-1.6-1.5h-5.5c-1.2,0-2.2.8-2.3,2-.2,1.8-.7,2.9-1.7,3.8-1.1,1.2-5,1.1-6.9,1.2-1.1,0-1.2,1.8-1.1,2.7v2c0,1.9.9,2.7,1.9,2.7h3.9c1.8,0,3.3,1.5,3.3,3.3v16.7c0,1.8,1.4,3.2,3.2,3.2h4.1c1.3,0,2.3-1,2.3-2.3h0Z"/>
</svg>