<?xml version="1.0" encoding="UTF-8"?>
<svg id="_图层_6" data-name="图层 6" xmlns="http://www.w3.org/2000/svg" viewBox="0 0 192 192">
  <defs>
    <style>
      .cls-1 {
        stroke: #000;
        stroke-miterlimit: 10;
        stroke-width: 4px;
      }
    </style>
  </defs>
  <path class="cls-1" d="M161.17,72.17c0-1.67-.67-3-1.67-4-1-1.33-2.67-2-4-2-23.33,0-42.67-19-42.67-42.67,0-3.33-2.67-5.67-5.67-5.67-3.33,0-5.67,2.67-5.67,5.67v81l-3-2.33c-7.33-6.33-17-10-26.67-10-22.67,0-41,18.33-41,41s18.33,41,41,41,40-17.33,41-39.67V57.17l3,3c10.33,11,24.67,17.33,39.67,17.33,3,.33,5.67-2.33,5.67-5.33ZM71.83,162.83c-16.33,0-29.67-13.33-29.67-29.67s13.33-29.67,29.67-29.67,29.67,13.33,29.67,29.67-13.33,29.67-29.67,29.67Z"/>
</svg>