<?xml version="1.0" encoding="UTF-8"?>
<svg id="_图层_12" data-name=" 图层 12" xmlns="http://www.w3.org/2000/svg" version="1.1" viewBox="0 0 192 192">
  <defs>
    <style>
      .cls-1 {
        fill: none;
        stroke: #000;
        stroke-miterlimit: 10;
        stroke-width: 12px;
      }
    </style>
  </defs>
  <path class="cls-1" d="M158.5,150.5c-1.8,2.2-4.4,3.7-7.1,4.3l-49.8,12.1c-5.7,1.4-11.1-3.3-11.1-9.7V38.2c0-6.5,5.7-11.3,11.5-9.5l52.1,15.7c3.9,1.2,6.7,5.1,6.7,9.5v89.5c0,1.1,0,2.1-.3,3.2-.4,1.8-1,2.8-1.9,3.9Z"/>
  <path class="cls-1" d="M87.8,44.3l-17.9-6.3c-3.5-1.2-7.1,1.3-7.1,5v107.1c0,4.3,4.1,7.4,8.3,6.3l16.8-4.8"/>
  <path class="cls-1" d="M60,51.8l-15.6-5.5c-3-1.1-6.2,1.2-6.2,4.4v93.2c0,3.8,3.6,6.5,7.2,5.4l14.6-4.2"/>
</svg>