<?xml version="1.0" encoding="UTF-8"?>
<svg id="_图层_21" data-name=" 图层 21" xmlns="http://www.w3.org/2000/svg" version="1.1" viewBox="0 0 192 192">
  <defs>
    <style>
      .cls-1 {
        stroke-width: 0px;
      }

      .cls-1, .cls-2, .cls-3 {
        fill: #000;
      }

      .cls-2 {
        stroke-width: 5px;
      }

      .cls-2, .cls-3 {
        stroke: #000;
        stroke-miterlimit: 10;
      }

      .cls-4 {
        isolation: isolate;
      }

      .cls-3 {
        stroke-width: 2px;
      }
    </style>
  </defs>
  <path class="cls-3" d="M155.9,161.2l-18.9-22.6c-2.2-3.1-6.4-4-9.7-1.7-3.1,2.2-4,6.4-1.7,9.7,0,0,0,.1.1.2l19.1,22.6c2.2,3.1,6.4,4,9.7,1.7,3.2-2.2,4-6.4,1.7-9.7,0,0,0-.1-.1-.2h-.1Z"/>
  <path class="cls-2" d="M96,147c31.9,0,57.7-25.9,57.7-57.7s-25.9-57.7-57.7-57.7-57.7,25.9-57.7,57.7,25.9,57.7,57.7,57.7ZM96,159c-38.5,0-69.7-31.2-69.7-69.7S57.5,19.6,96,19.6h0c38.5,0,69.7,31.2,69.7,69.7s-31.2,69.7-69.7,69.7Z"/>
  <g class="cls-4">
    <g class="cls-4">
      <path class="cls-1" d="M95,107.4c0,1.2-.4,2.2-.9,2.8-.5.6-1,1.1-1.5,1.4-.5.4-1,.6-1.2.9-.5,0-1-.4-1.7-.9-.6-.4-1.1-.6-1.5-.7-.5-1-1.1-1.7-2-2.4l-2.4-1.7c.2,0,1.4.6,3.3,1.6v-.2c-.7-.7-2.1-1.7-4-2.7-2-1.1-3.2-1.9-3.6-2.5l6.3,2.8c-.2-.5-.6-.9-1-1.1-1-.5-2.2-1-3.5-1.6l.2-.2c1,.4,2.4.9,4.2,1.2v-.9c.1,0,.2-.1.2-.1-1.2-5.7-2.2-8.8-3.2-9.5,0,0-1.4.1-4.1.2-1.6,0-3.8.5-6.7,1-3.5.6-5.6,1.2-6.1,1.7s-.9,1-1.2,2c-.5,1.2-.9,2-1,2.1-1.4,2.2-2.5,5.2-3.2,8.8h-.6q-.2,0-.5.1c-.5.4-1.4.6-2.5.6s-.2,0-.2.2c-.5-.2-1.2-.7-2-1.4l-.9.5v-1.2c0-.5-.4-1.4-1.2-2.4v-.5l-.4-.9c-.2-.6-.4-1-.4-1.2v-1.6c.1,0,.2-1.6.2-1.6h.1s0,.2.2.4h.2c.5-.6,1.2-1.7,2-3.2l1.7-3.5c2.2-4.8,4.7-9.5,7.5-14.1l2.5-5.1v-.4c.2-.2.5-.6.6-1.1l.5-1c0-.2.4-1.4,1.1-3.1s1.1-2.7,1.4-2.7v-.6h0c0-.1.2-.1.2-.1v-.4c.6-1.2,1-2.2,1-3l-.2-.5c0-.2.2-.6.6-1v-.2l-.7-.5h-.1c0,.1,0-.2,0-.2,0,0,1.2-1,4-3l1.7-1.4c1-.6,1.7-.9,2.4-.9s.7.2,1.4.9,1,1,1.2,1l.5-.2c0,.2.2,1,1,2.1.9,1.5,1.2,2.2,1.4,2.4,0,1,.2,1.9.6,2.7l-.6,1.2-2,1.6c-.7.6-1.2,1.4-1.4,2.2,0,.5.5,1.4,1,2.6,0,.2,0,.6.2.9l.2.6v.2c.4.7.7,1.6,1,2.8.2.5.5,1.2.9,2.2l.7,2.5c.9,1.9,2.4,5.9,4.3,12.3l.2.2c0,.2.2,1.4,1,3.2.6,1.9,1.1,3.2,1.5,4.2.7,1.4,1.4,2.5,1.9,3.5.4.7.6,1.9.9,3.5l-.2.2h.2ZM78.3,73.7c-.4.4-1.5,2.4-3.2,5.8-1.9,3.5-2.8,5.4-3.1,6.1h.5c.7,0,1.2,0,1.6-.2h.5c.2,0,1.5-.4,3.6-.7,2.1-.4,3.5-.7,3.8-1-1.6-4.5-2.8-7.8-3.6-9.9h-.1ZM82.8,106.6c-.2,0-.5,0-.6-.2v-.5h.5l.7.6h-.6Z"/>
      <path class="cls-1" d="M138.4,103.9c0,.5-.2,1.2-.6,2.2-.5.5-.9,1.1-1.2,2-.2,0-.5.2-1,.9h-.2c-.2,0-.7.1-1.2.5-.6,0-1.1-.2-1.4-.6-.2-.2-.9-.9-1.9-2.1s-1.5-1.9-1.5-2.1c-.5-.5-1.1-1.6-2-3.3,0-1.4-.2-2.1-.6-2.4-2.1,2.2-4.2,4.3-6.6,6.3-2.7,2.4-5.3,3.6-7.9,3.6s-2.2-.6-3.1-1.7c-.5-.5-1.1-1.7-2.1-3.5-1-2-1.6-3.3-1.6-4.3,0-4.6,2.1-9.8,6.4-15.8,4.6-6.2,8.8-9.4,12.5-9.4s6.8,2.2,7.5,6.6l1.6,3.8v.2c0,.5,0,1.1.4,2.1-.2.5-.2,1-.2,1.5v.6c-.1.1-.4.5-.6,1.2-.2.6-.4,1-.5,1.2v.2c0,.4,0,.7.2.9.4,1.1,1.1,2.6,2.4,4.5,0-.7.4-1.6.6-2.5,0,1.9.1,3.1.5,3.6v-1c0-2.5,0-4.2.4-5.3.1.5.2,3,.2,7.5s0,.5,0,.6h.2c0-1,0-1.6.2-1.9h.2c0,2.5.2,4.3.6,5.6v.2ZM126.1,88.3h-.2c-.2-.4-.7-.6-1.2-.9,0,0-.2-.1-.6-.5-.1,0-.2,0-.5-.2-.1,0-.4-.2-.5-.2l-1.2.2c-1.4.7-2.7,1.9-4.2,3.3-1.7,1.7-2.6,3.2-2.5,4.5h-.5c0,.4,0,.6-.2.7v.6c-.6.2-1.1,1.4-1.1,3.3s0,.6,0,.9h.5c0-.1.2-.2.2-.2l.2.2c.2-.2,1-.6,2-.9h0c0-.4.2-.5.7-.6v-.2h.1c.7-.6,1.4-1,1.9-1,4.3-3.8,6.6-6.8,6.8-8.8l.4-.2ZM137.6,97.6l-.2-.6.4-.6.5.2c0,.6-.2,1-.6,1Z"/>
    </g>
  </g>
</svg>