<?xml version="1.0" encoding="UTF-8"?>
<svg id="_图层_21" data-name=" 图层 21" xmlns="http://www.w3.org/2000/svg" version="1.1" viewBox="0 0 192 192">
  <defs>
    <style>
      .cls-1 {
        stroke-width: 0px;
      }

      .cls-1, .cls-2, .cls-3 {
        fill: #000;
      }

      .cls-2 {
        stroke-width: 5px;
      }

      .cls-2, .cls-3 {
        stroke: #000;
        stroke-miterlimit: 10;
      }

      .cls-4 {
        isolation: isolate;
      }

      .cls-3 {
        stroke-width: 2px;
      }
    </style>
  </defs>
  <path class="cls-3" d="M140.3,149.7l-15.3-18.3c-1.8-2.5-5.2-3.2-7.8-1.4-2.5,1.8-3.2,5.2-1.4,7.8,0,0,0,.1.1.2l15.4,18.3c1.8,2.5,5.2,3.2,7.8,1.4s3.2-5.2,1.4-7.8c0,0,0-.1-.1-.2h0Z"/>
  <path class="cls-2" d="M91.9,138.2c25.8,0,46.6-20.9,46.6-46.6s-20.9-46.6-46.6-46.6-46.6,20.9-46.6,46.6,20.9,46.6,46.6,46.6ZM91.9,147.9c-31.1,0-56.3-25.2-56.3-56.3s25.2-56.3,56.3-56.3h0c31.1,0,56.3,25.2,56.3,56.3,0,31.1-25.2,56.3-56.3,56.3Z"/>
  <g class="cls-4">
    <g class="cls-4">
      <path class="cls-1" d="M91.1,106.2c0,1-.3,1.8-.7,2.3-.4.5-.8.9-1.2,1.1-.4.3-.8.5-1,.7-.4,0-.8-.3-1.4-.7-.5-.3-.9-.5-1.2-.6-.4-.8-.9-1.4-1.6-1.9l-1.9-1.4c.2,0,1.1.5,2.7,1.3v-.2c-.6-.6-1.7-1.4-3.2-2.2-1.6-.9-2.6-1.5-2.9-2l5.1,2.3c-.2-.4-.5-.7-.8-.9-.8-.4-1.8-.8-2.8-1.3l.2-.2c.8.3,1.9.7,3.4,1v-.7c.1,0,.2-.1.2-.1-1-4.6-1.8-7.1-2.6-7.7,0,0-1.1.1-3.3.2-1.3,0-3.1.4-5.4.8-2.8.5-4.5,1-4.9,1.4-.3.3-.7.8-1,1.6-.4,1-.7,1.6-.8,1.7-1.1,1.8-2,4.2-2.6,7.1-.1,0-.3,0-.5,0s-.2,0-.4.1c-.4.3-1.1.5-2,.5s-.2,0-.2.2c-.4-.2-1-.6-1.6-1.1l-.7.4v-1c0-.4-.3-1.1-1-1.9,0,0,0-.2,0-.4l-.3-.7c-.2-.5-.3-.8-.3-1v-1.3c.1,0,.2-1.3.2-1.3h.1c0,0,0,.2.2.3h.2c.4-.5,1-1.4,1.6-2.6l1.4-2.8c1.8-3.9,3.8-7.7,6.1-11.4l2-4.1v-.3c.2-.2.4-.5.5-.9l.4-.8c0-.2.3-1.1.9-2.5.6-1.4.9-2.2,1.1-2.2v-.5c0,0,0-.1,0-.1h.2v-.3c.5-1,.8-1.8.8-2.4l-.2-.4c0-.2.2-.5.5-.8v-.2c0,0-.6-.4-.6-.4h-.1c0,.1,0-.2,0-.2,0,0,1-.8,3.2-2.4l1.4-1.1c.8-.5,1.4-.7,1.9-.7s.6.2,1.1.7c.5.5.8.8,1,.8l.4-.2c0,.2.2.8.8,1.7.7,1.2,1,1.8,1.1,1.9,0,.8.2,1.5.5,2.2l-.5,1-1.6,1.3c-.6.5-1,1.1-1.1,1.8,0,.4.4,1.1.8,2.1,0,.2,0,.5.2.7l.2.5v.2c.3.6.6,1.3.8,2.3.2.4.4,1,.7,1.8l.6,2c.7,1.5,1.9,4.8,3.5,9.9l.2.2c0,.2.2,1.1.8,2.6.5,1.5.9,2.6,1.2,3.4.6,1.1,1.1,2,1.5,2.8.3.6.5,1.5.7,2.8l-.2.2ZM77.6,79c-.3.3-1.2,1.9-2.6,4.7-1.5,2.8-2.3,4.4-2.5,4.9h.4c.6,0,1,0,1.3-.2h.4c.2,0,1.2-.3,2.9-.6,1.7-.3,2.8-.6,3.1-.8-1.3-3.6-2.3-6.3-2.9-8ZM81.2,105.6c-.2,0-.4,0-.5-.2v-.4h.4c0,0,.6.5.6.5-.1,0-.3,0-.5,0Z"/>
      <path class="cls-1" d="M126.2,103.4c0,.4-.2,1-.5,1.8-.4.4-.7.9-1,1.6-.2,0-.4.2-.8.7h-.2c-.2,0-.6.1-1,.4-.5,0-.9-.2-1.1-.5-.2-.2-.7-.7-1.5-1.7-.8-1-1.2-1.5-1.2-1.7-.4-.4-.9-1.3-1.6-2.7,0-1.1-.2-1.7-.5-1.9-1.7,1.8-3.4,3.5-5.3,5.1-2.2,1.9-4.3,2.9-6.4,2.9s-1.8-.5-2.5-1.4c-.4-.4-.9-1.4-1.7-2.8-.8-1.6-1.3-2.7-1.3-3.5,0-3.7,1.7-7.9,5.2-12.8,3.7-5,7.1-7.6,10.1-7.6s5.5,1.8,6.1,5.3l1.3,3.1v.2c0,.4,0,.9.3,1.7-.2.4-.2.8-.2,1.2s0,.4,0,.5c-.1.1-.3.4-.5,1-.2.5-.3.8-.4,1v.2c0,.3,0,.6.2.7.3.9.9,2.1,1.9,3.6,0-.6.3-1.3.5-2,0,1.5.1,2.5.4,2.9v-.8c0-2,0-3.4.3-4.3.1.4.2,2.4.2,6.1s0,.4,0,.5h.2c0-.8,0-1.3.2-1.5h.2c0,2,.2,3.5.5,4.5ZM116.2,90.8h-.2c-.2-.3-.6-.5-1-.7,0,0-.2-.1-.5-.4-.1,0-.2,0-.4-.2-.1,0-.3-.2-.4-.2l-1,.2c-1.1.6-2.2,1.5-3.4,2.7-1.4,1.4-2.1,2.6-2,3.6h-.4c0,.3,0,.5-.2.6v.2c0,0,.1.3.1.3-.6.2-1,1.1-1,2.7s0,.5,0,.7h.4c0-.1.2-.2.2-.2l.2.2c.2-.2.8-.5,1.6-.7h0c0-.3.2-.4.6-.5,0,0,.1-.2.1-.2h0c.6-.5,1.1-.8,1.5-.8,3.5-3.1,5.3-5.5,5.5-7.1ZM125.5,98.3l-.2-.5.3-.5.4.2c0,.5-.2.8-.5.8Z"/>
    </g>
  </g>
</svg>