<?xml version="1.0" encoding="UTF-8" standalone="no"?>
<svg
   width="192"
   height="192"
   viewBox="0 0 192 192"
   fill="none"
   version="1.1"
   id="svg4"
   xml:space="preserve"
   xmlns="http://www.w3.org/2000/svg"
   xmlns:svg="http://www.w3.org/2000/svg"><defs
     id="defs4" /><g
     id="g4"
     style="display:none"><rect
       width="192"
       height="192"
       fill="#ffffff"
       id="rect1"
       x="0"
       y="0"
       style="display:inline" /><rect
       width="192"
       height="192"
       fill="#ffffff"
       id="rect2"
       x="0"
       y="0"
       style="display:inline" /><path
       d="M 192,192 H 0 V 0 H 192 Z M 22,16 c -3.3137,0 -6,2.6863 -6,6 v 148 c 0,3.314 2.6863,6 6,6 h 148 c 3.314,0 6,-2.686 6,-6 V 22 c 0,-3.3137 -2.686,-6 -6,-6 z"
       fill="#eaa6a7"
       id="path2"
       style="display:inline" /><rect
       x="16.5"
       y="16.5"
       width="159"
       height="159"
       rx="5.5"
       stroke="#3b8aff"
       id="rect3"
       style="display:inline" /><circle
       cx="96"
       cy="96"
       r="79.5"
       stroke="#3b8aff"
       id="circle3"
       style="display:inline" /><rect
       x="19.5"
       y="19.5"
       width="153"
       height="153"
       rx="5.5"
       stroke="#ff9900"
       id="rect4"
       style="display:inline" /></g><path
     d="M 144.45914,65.259421 A 53.317267,52.739771 0 0 0 42.699331,79.574502 30.46701,30.137012 0 0 0 49.859077,139.01976 H 133.64336 A 38.083763,37.671266 0 0 0 144.45914,65.259421 Z M 133.64336,123.95126 H 49.859077 a 15.233513,15.068514 0 0 1 0,-30.137022 7.6167525,7.5342532 0 0 0 7.616753,-7.534251 38.083763,37.671266 0 0 1 74.111,-12.130147 7.6167525,7.5342532 0 0 0 5.94107,4.972606 22.850257,22.60276 0 0 1 -3.88454,44.828814 z"
     p-id="4587"
     fill="#000000"
     id="path1"
     style="stroke-width:0.177548" /><text
     xml:space="preserve"
     style="font-size:42.6667px;text-align:start;writing-mode:lr-tb;direction:ltr;text-anchor:start;fill:#000000"
     x="59.05843"
     y="116.36958"
     id="text5"><tspan
       id="tspan5"
       x="59.05843"
       y="116.36958"
       style="font-style:normal;font-variant:normal;font-weight:bold;font-stretch:normal;font-size:42.6667px;font-family:sans-serif;-inkscape-font-specification:'sans-serif Bold';fill:#000000">ETC</tspan></text></svg>
