<?xml version="1.0" encoding="UTF-8"?>
<svg id="_图层_7" data-name="图层 7" xmlns="http://www.w3.org/2000/svg" viewBox="0 0 192 192">
  <defs>
    <style>
      .cls-1, .cls-2, .cls-3 {
        stroke-width: 8px;
      }

      .cls-1, .cls-2, .cls-3, .cls-4 {
        fill: none;
        stroke: #000;
      }

      .cls-1, .cls-4 {
        stroke-miterlimit: 10;
      }

      .cls-2 {
        stroke-linecap: round;
      }

      .cls-2, .cls-3 {
        stroke-linejoin: round;
      }

      .cls-4 {
        stroke-width: 4px;
      }
    </style>
  </defs>
  <path class="cls-2" d="M94.72,32.67c34.98-.71,63.91,27.09,64.62,62.09.71,35-27.08,63.95-62.06,64.65-34.98.7-63.91-27.1-64.61-62.09-.24-11.64,2.73-23.1,8.57-33.15"/>
  <path class="cls-2" d="M94.68,32.57h-39.65c-.46,16.38.09,70.98.17,79.35.49,14.46,13.71,20.26,19.82,20.68,8.31.09,22.18-7.51,25.96-8.43"/>
  <path class="cls-1" d="M101.22,129.26c0-7.7,6.24-13.93,13.92-13.93s13.92,6.23,13.92,13.93-6.24,13.93-13.92,13.93-13.92-6.23-13.92-13.93Z"/>
  <path class="cls-2" d="M57.87,79.21l50.86-19.26"/>
  <path class="cls-2" d="M109.02,59.89c8.53-1.67,12.85,3.26,14.21,4.15,1.57,1.16,6.39,7.16,6.39,12.22"/>
  <path class="cls-2" d="M129.62,76.26v19.26"/>
  <path class="cls-3" d="M128.13,95.21c4.89,0,12.17,3.33,17.62,10.93,4.06,4.94,5.74,17.33,4.42,23.12"/>
  <path class="cls-2" d="M117.05,82.63v29.79"/>
  <path class="cls-2" d="M112.04,77.61c2.77,0,5.01,2.24,5.01,5.01"/>
  <path class="cls-2" d="M83.32,90.92c.32-1.52,1.29-2.83,2.66-3.57"/>
  <path class="cls-2" d="M86.11,87.35l24.95-9.65"/>
  <path class="cls-2" d="M83.32,90.98v11.18"/>
  <path class="cls-2" d="M90.25,105.56c-2.43,1.21-5.37.23-6.59-2.2-.17-.35-.31-.72-.39-1.11"/>
  <path class="cls-2" d="M89.93,105.73l24.95-9.65"/>
  <path class="cls-4" d="M64.51,94.13c0-2.37,1.92-4.3,4.3-4.3s4.3,1.93,4.3,4.3-1.92,4.3-4.3,4.3-4.3-1.93-4.3-4.3Z"/>
  <path class="cls-4" d="M71.04,115.3c0-2.37,1.92-4.3,4.3-4.3s4.3,1.93,4.3,4.3-1.92,4.3-4.3,4.3-4.3-1.93-4.3-4.3Z"/>
</svg>