<?xml version="1.0" encoding="UTF-8"?>
<svg id="_图层_3" data-name="图层 3" xmlns="http://www.w3.org/2000/svg" viewBox="0 0 192 192">
  <defs>
    <style>
      .cls-1 {
        fill: #000;
        stroke-width: 0px;
      }
    </style>
  </defs>
  <path class="cls-1" d="M96,27.38c37.85,0,68.62,30.77,68.62,68.62s-30.77,68.62-68.62,68.62S27.38,133.85,27.38,96,58.15,27.38,96,27.38ZM96,154.82c32.47,0,58.82-26.35,58.82-58.82s-26.35-58.82-58.82-58.82-58.82,26.35-58.82,58.82,26.35,58.82,58.82,58.82ZM110.7,81.3c0-5.41,4.39-9.8,9.8-9.8s9.8,4.39,9.8,9.8-4.39,9.8-9.8,9.8-9.8-4.39-9.8-9.8ZM61.69,81.3c0-5.41,4.39-9.8,9.8-9.8s9.8,4.39,9.8,9.8-4.39,9.8-9.8,9.8-9.8-4.39-9.8-9.8ZM124.13,107.46c2.63,1.72,3.43,5.26,1.72,7.89-6.47,10.23-17.75,16.41-29.85,16.36-12.1.05-23.38-6.13-29.85-16.36-1.69-2.65-.93-6.18,1.72-7.89,2.65-1.69,6.18-.93,7.89,1.72,4.39,6.93,12.04,11.12,20.24,11.09,8.23,0,15.78-4.12,20.24-11.09,1.72-2.63,5.26-3.43,7.89-1.72h0Z"/>
</svg>