<?xml version="1.0" encoding="UTF-8"?>
<svg id="_图层_7" data-name="图层 7" xmlns="http://www.w3.org/2000/svg" viewBox="0 0 192 192">
  <path d="M77.27,74.16h-37.39c-1.23,0-2.22.99-2.22,2.22s.99,2.21,2.22,2.21h37.39c1.22,0,2.21-.99,2.21-2.21,0-1.23-.99-2.22-2.21-2.22ZM77.27,92.39h-37.39c-1.23,0-2.22,1-2.22,2.22s.99,2.21,2.22,2.21h37.39c1.22,0,2.21-.99,2.21-2.21,0-1.22-.99-2.22-2.21-2.22ZM77.27,110.61h-37.39c-1.23,0-2.22.99-2.22,2.22s.99,2.21,2.22,2.21h37.39c1.22,0,2.21-.99,2.21-2.21,0-1.22-.99-2.22-2.21-2.22ZM112.4,76.38c0,1.22.99,2.21,2.21,2.21h37.39c1.23,0,2.21-.99,2.21-2.21s-.99-2.22-2.21-2.22h-37.39c-1.22,0-2.21.99-2.21,2.22ZM152,92.39h-37.39c-1.22,0-2.21,1-2.21,2.22s.99,2.21,2.21,2.21h37.39c1.23,0,2.21-.99,2.21-2.21,0-1.22-.99-2.22-2.21-2.22ZM152,110.61h-37.39c-1.22,0-2.21.99-2.21,2.22s.99,2.21,2.21,2.21h37.39c1.23,0,2.21-.99,2.21-2.21,0-1.22-.99-2.22-2.21-2.22ZM133.04,36.67c-13.72,0-29.05,2.1-37.04,7.49-7.99-5.39-23.32-7.49-37.04-7.49-19.64,0-42.58,4.29-42.58,16.4v96.72c0,1.64.72,3.18,1.97,4.23,1.25,1.05,2.9,1.5,4.51,1.22,10.89-1.88,23.37-2.88,36.1-2.88s25.2,1,36.1,2.88c.15.03.3.03.44.04.12,0,.23.02.35.02.05,0,.1.02.15.02.3,0,.59-.02.88-.08.02,0,.04,0,.06,0,10.89-1.88,23.37-2.88,36.1-2.88s25.21,1,36.1,2.88c.31.06.63.08.95.08,1.29,0,2.56-.45,3.56-1.3,1.25-1.05,1.97-2.59,1.97-4.23V53.07c0-12.11-22.93-16.4-42.58-16.4ZM27.45,143.34V53.77c2.24-2.19,13.3-6.03,31.51-6.03s29.27,3.83,31.51,6.03v89.57c-9.85-1.35-20.6-2.05-31.51-2.05-10.9,0-21.66.7-31.51,2.05ZM164.55,143.34c-19.69-2.69-43.33-2.69-63.01,0V53.77c2.24-2.19,13.3-6.03,31.51-6.03s29.27,3.83,31.51,6.03v89.57h0Z"/>
</svg>