<?xml version="1.0" encoding="UTF-8"?>
<svg id="_图层_3" data-name="图层 3" xmlns="http://www.w3.org/2000/svg" viewBox="0 0 192 192">
  <path d="M114.7,21.57q.37.03.75.03c1.93.19,3.37.8,4.68,2.25.48,1.36.56,2.7,0,4.07-.59.96-1.04,1.63-2.14,2.03-1.98.16-4.01,0-6-.13-16.94-1.07-33.51,4.23-46.73,14.85-.24.19-.48.37-.75.59-3.08,2.46-5.94,5.09-8.35,8.24-.21.27-.43.54-.64.8-4.31,5.43-7.73,11.4-10.06,17.93-.05.19-.13.37-.21.56-4.23,11.94-3.59,25.67,1.79,37.12l.56,1.12.27.54c3.29,6.69,8.32,12.45,14.26,16.89.21.13.43.29.62.45,2.76,2.01,5.59,3.53,8.75,4.79.32.13.64.24.96.37,10.36,4.09,21.44,3.85,31.69-.37,8.46-3.75,16.14-10.22,19.67-18.92.43-1.15.78-2.3,1.12-3.48.08-.29.19-.59.27-.88.48-1.69.7-3.02.27-4.74-.67-.54-1.12-.54-1.98-.59-1.47.48-1.82,1.5-2.54,2.81-.27.51-.56.99-.83,1.47-.13.24-.27.48-.4.72-3.59,6.08-9.53,9.93-16.19,11.94-2.76.67-5.46.88-8.32.86h-.54c-7.55-.03-14.45-2.01-20.58-6.5-.21-.16-.43-.32-.67-.48-6.88-5.25-11.48-12.95-12.77-21.54-.59-4.66-.51-9.53.59-14.1.05-.19.08-.37.13-.56,1.61-6.48,4.82-12.15,9.23-17.1.19-.24.37-.45.56-.7.48-.59.94-1.07,1.53-1.55.7-.59,1.34-1.18,1.95-1.82,8.22-8.35,21.65-12.53,33.05-12.58,12.42-.05,23.77,2.89,33.83,10.49.24.19.51.37.75.56,1.39,1.1,2.68,2.25,3.96,3.43.56.48,1.12.96,1.69,1.45,8.99,7.87,14.26,19.75,16.62,31.23q.05.32.13.64c2.86,14.1-.75,29.76-8.48,41.75-.35.51-.67.99-1.02,1.5-.13.19-.24.37-.37.56-1.74,2.57-3.61,5-5.67,7.33-.35.37-.67.75-.99,1.12-1.1,1.23-2.25,2.44-3.43,3.61-.11.13-.24.24-.37.37-5.11,5.11-11.19,9.02-17.53,12.39-.48.27-.96.54-1.42.78-11.72,6.18-25.02,8.16-38.11,7.31-.32-.03-.64-.03-.99-.05q-6.74-.48-8.14-1.95c-.78-1.02-.86-1.82-.83-3.08.19-1.2.67-2.17,1.58-2.97,1.69-.99,3.05-.8,4.92-.59,15.95,1.5,33.08-1.58,45.93-11.72.24-.19.48-.4.75-.59.75-.59,1.47-1.2,2.19-1.82.29-.24.59-.48.88-.72,3.4-2.84,6.58-5.91,9.29-9.45.11-.13.21-.27.32-.43,2.11-2.7,3.83-5.57,5.49-8.56.29-.56.62-1.12.96-1.66,3.51-6.08,5.41-13.94,5.81-20.93q.03-.29.03-.59c.64-12.31-3.8-25.24-12.07-34.39-.19-.21-.37-.4-.56-.59q-.51-.56-1.02-1.23c-.59-.72-1.2-1.26-1.93-1.82-.27-.21-.54-.43-.8-.64-.24-.19-.51-.4-.78-.62-.21-.19-.43-.35-.64-.54-9.02-7.44-19.89-10.97-31.53-10.09-7.81.83-15.07,4.04-21.09,9.02-.16.13-.29.24-.45.37-5.11,4.28-9.66,10.81-10.63,17.5-.03.91.08,1.63.4,2.46q.48.59,1.26.8c1.12,0,1.55-.13,2.46-.8.43-.7.8-1.42,1.18-2.14.7-1.28,1.61-2.38,2.57-3.48.19-.21.35-.43.54-.67,4.23-4.98,10.22-8.32,16.73-9.15,8.78-.7,19.48,2.25,26.36,7.95.13.11.29.24.45.37,6.34,5.17,10.68,11.88,12.39,19.97.05.29.13.59.19.91,1.58,8.89-.43,18.84-5.57,26.28-.35.48-.7.96-1.04,1.45-.11.16-.24.32-.35.48-7.98,10.76-20.82,17.74-33.91,19.86-1.66.24-3.32.32-5,.32-.24,0-.48.03-.72.03q-9.96.08-14.88-1.15-.35-.08-.72-.16c-6.45-1.58-12.45-4.47-17.99-8.14-.21-.16-.45-.29-.67-.45-2.97-1.98-5.57-4.31-8.08-6.82q-.19-.21-.4-.43c-1.95-1.95-3.77-3.91-5.33-6.21-.21-.32-.43-.62-.64-.94-8.97-12.9-12.61-28.48-10.01-44,.51-2.76,1.23-5.41,2.09-8.06q.08-.27.19-.56c2.62-8.03,7.12-15.66,12.87-21.81.51-.54.99-1.1,1.47-1.66.96-1.12,2.01-2.19,3.08-3.24.16-.19.35-.37.56-.59,1.45-1.42,2.94-2.73,4.58-3.99.21-.16.4-.35.62-.51,3.37-2.78,6.96-5.17,10.84-7.2.56-.32,1.12-.62,1.69-.94,13.38-7.41,28.42-9.58,43.52-8.56Z"/>
  <path d="M155.32,22.61c.83.8,1.12,1.61,1.47,2.68.13.4.27.78.4,1.15.08.19.13.37.21.59.99,2.68,2.41,4.66,5.09,5.94.7.27,1.39.48,2.11.7q3,.8,3.99,2.19c.4.86.4,1.47.24,2.38-.56,1.18-1.07,1.58-2.27,2.03-.29.11-.56.21-.86.32-.56.21-1.12.4-1.69.59-2.52.86-4.63,2.11-5.89,4.55-.37,1.02-.72,2.06-1.02,3.1-.43,1.45-.91,2.57-2.25,3.43-1.36.29-2.6.19-3.83-.45-1.18-1.28-1.47-2.94-1.98-4.58-.83-2.6-1.95-4.07-4.34-5.43-1.18-.54-2.38-.83-3.64-1.12-1.12-.37-2.11-.88-2.86-1.85-.24-.91-.29-1.53-.16-2.46.83-1.45,1.85-2.09,3.45-2.52.21-.05.43-.13.67-.19,2.65-.72,4.44-1.66,6.05-3.99q.4-.94.7-1.95.08-.27.19-.54c.24-.75.45-1.53.67-2.27.37-1.31.7-2.03,1.93-2.73,1.31-.43,2.44-.32,3.61.43Z"/>
  <path d="M31.97,125.54c.54.67.67,1.34.88,2.17.75,2.52,1.74,3.75,4.04,5,.83.37,1.66.7,2.52,1.02.67.32,1.04.54,1.5,1.12.13.86.19,1.34,0,2.14-1.07,1.26-2.33,1.63-3.85,2.17-1.98.7-2.94,1.93-3.91,3.72-.43.99-.83,1.95-1.2,2.97q-.4.78-.94,1.15c-1.07.32-1.85.29-2.86-.16-.83-.99-.96-1.93-1.23-3.16-.4-1.63-1.02-2.6-2.44-3.51-1.36-.75-2.76-1.28-4.2-1.77-.83-.37-1.28-.72-1.85-1.42q-.16-.91,0-1.87c1.18-1.53,2.6-1.82,4.36-2.27,1.61-.45,2.49-1.15,3.4-2.54.32-.7.59-1.39.8-2.14.13-.43.27-.86.4-1.28.05-.19.11-.4.19-.59.32-.78.75-1.2,1.5-1.55,1.02-.08,2.03.16,2.89.8Z"/>
  <path d="M55.63,150.65c.94.78,1.39,1.61,1.93,2.7.13.27.27.54.4.83q.35.75.62,1.55.48.29,1.07.54,3.08,1.69,3.75,2.94c.19,1.1.16,1.63-.45,2.57-.54.45-.94.67-1.61.91-2.36.94-3.18,2.22-4.23,4.44-.67,1.36-1.18,2.09-2.54,2.78-1.04.03-1.47-.13-2.25-.83-.78-.86-1.23-1.69-1.71-2.7-.08-.16-.16-.32-.27-.51q-.59-1.23-.59-1.85c-.19-.08-.37-.13-.56-.21-.8-.32-1.55-.72-2.3-1.12-.24-.13-.51-.27-.78-.43q-.64-.37-1.18-.91c-.21-1.18-.19-2.11.48-3.13.8-.56,1.55-.94,2.44-1.34,1.79-.86,2.38-1.85,3.24-3.56.27-.45.56-.91.83-1.34.13-.19.24-.37.37-.59.96-1.18,1.93-1.1,3.35-.75Z"/>
  <path d="M171.81,59.17c.91.75,1.58,1.45,1.85,2.62.13,1.47-.08,2.46-.8,3.75-.96,1.04-1.87,1.55-3.29,1.69-1.77-.13-2.78-.91-3.93-2.22-.4-1.18-.4-2.27-.27-3.48.59-1.18,1.31-1.93,2.41-2.68,1.34-.43,2.81-.4,4.04.32Z"/>
  <path d="M60.45,62.86c.99.35,1.69.86,2.38,1.69.56,1.39.7,2.41.27,3.85-.7,1.2-1.34,2.06-2.65,2.49-1.5.11-2.46.05-3.75-.8-1.1-1.18-1.45-2.09-1.42-3.72.19-1.34.88-2.19,1.87-3.08,1.15-.56,2.03-.64,3.29-.43Z"/>
  <path d="M147.96,145.29c.08.27.19.54.27.8l-2.94,2.94c-.08-.27-.19-.54-.27-.8l2.94-2.94Z"/>
  <path d="M146.89,61.52c.96.16,1.42.51,2.09,1.23.16.16.32.32.48.51.13.13.24.27.37.4l-.54.54c-.32-.29-.62-.59-.94-.91-.16-.16-.35-.32-.54-.51q-.4-.45-.4-.99c-.19-.08-.35-.19-.54-.27Z"/>
  <path d="M147.96,29.94q.27.8-.03,1.5-.51.64-1.23.86c-.21.03-.4.03-.62.05.11-.13.21-.27.35-.4.13-.16.29-.32.43-.51.16-.16.29-.32.45-.51q.4-.45.64-.99Z"/>
  <path d="M59.91,37.17c.19.08.35.19.54.27-.43.54-.88,1.07-1.34,1.61-.35-.08-.7-.19-1.07-.27.62-.54,1.23-1.07,1.87-1.61Z"/>
  <path d="M144.22,149.04c.27.08.54.19.8.27l-1.87,1.61q0-.8.54-1.39c.19-.16.35-.32.54-.48Z"/>
  <path d="M65.26,106.22l1.34.54v1.87q-1.18-1.36-1.34-2.41Z"/>
  <path d="M49.74,164.03q.8.27,1.12.75c.24.67.24,1.2.21,1.93q-1.34-2.01-1.34-2.68Z"/>
  <path d="M22.98,139.14c1.04.16,1.82.45,2.68,1.07v.54c-.88-.45-1.79-.88-2.68-1.34v-.27Z"/>
  <path d="M139.4,141.55c.08.35.19.7.27,1.07-.27.19-.54.35-.8.54-.27-.08-.54-.19-.8-.27l1.34-1.34Z"/>
  <path d="M142.07,138.34h.8c-.19.35-.35.7-.54,1.07h-.54v.54c-.27-.08-.54-.19-.8-.27q.48-.67,1.07-1.34Z"/>
  <path d="M44.92,105.95l.54.27c.19.62.37,1.23.54,1.87-.35-.08-.7-.19-1.07-.27v-1.87Z"/>
  <path d="M73.83,84.01c.16.21.32.43.48.64q.56.72,1.39,1.23c-.27.08-.54.19-.8.27l-1.34-1.34c.08-.27.19-.54.27-.8Z"/>
</svg>