<?xml version="1.0" encoding="UTF-8"?>
<svg id="_图层_15" data-name="图层 15" xmlns="http://www.w3.org/2000/svg" viewBox="0 0 192 192">
  <defs>
    <style>
      .cls-1 {
        fill: #000;
        stroke: #000;
        stroke-miterlimit: 10;
        stroke-width: 5px;
      }
    </style>
  </defs>
  <path class="cls-1" d="M154.23,73.68H44.91l-.69-2.72c-1.62-5.93,1.16-12.23,6.37-14.7L120.42,23.15c2.78-1.36,6.02-1.48,8.92-.25s5.21,3.46,6.48,6.55l18.41,44.23ZM50.82,66.27h92.64l-14.01-33.85c-.46-1.24-1.39-2.1-2.55-2.59s-2.43-.49-3.59.12L53.48,63.06c-1.39.62-2.2,1.85-2.66,3.21Z"/>
  <path class="cls-1" d="M156.04,73.63H25.58v-6.18c0-11.61,9.39-21,21-21h20.88l52.51-23.35c2.97-1.36,6.42-1.48,9.51-.25s5.56,3.46,6.92,6.55l19.64,44.23ZM32.99,66.22h111.56l-14.95-33.85c-.49-1.24-1.48-2.1-2.72-2.59s-2.59-.49-3.83.12l-53.99,23.97h-22.49c-7.04,0-12.85,5.44-13.59,12.35Z"/>
  <path class="cls-1" d="M151.2,170H40.8c-8.37,0-15.23-6.85-15.23-15.23v-83.21c0-2.95,2.39-5.34,5.34-5.34h120.28c8.37,0,15.23,6.85,15.23,15.23v73.33c0,8.37-6.85,15.23-15.23,15.23ZM32.99,78.97v75.8c0,4.3,3.52,7.81,7.81,7.81h110.39c4.3,0,7.81-3.52,7.81-7.81v-73.33c0-4.3-3.52-7.81-7.81-7.81H38.33c-2.95,0-5.34,2.39-5.34,5.34Z"/>
  <path class="cls-1" d="M135,136.64c-5.76,0-10.42-4.74-10.42-10.6v-14.96c0-5.86,4.66-10.6,10.42-10.6s10.42,4.74,10.42,10.6v14.96c0,5.86-4.66,10.6-10.42,10.6ZM135,106.53c-1.72,0-4.45.86-4.8,4.39v13.93c0,.62.08,1.25.31,1.83.92,2.23,3.05,2.85,4.55,2.86s2.72-.46,3.67-1.54c.68-.77,1.09-1.55,1.2-2.83v-14.92c-.65-3.45-3.23-3.72-4.94-3.72ZM66.66,65.63l66.89-28.96c.51-.22,1.1.02,1.31.53l2.11,5.05c.21.5-.02,1.08-.52,1.3l-66.88,28.96c-.51.22-1.1-.02-1.31-.53l-2.11-5.05c-.21-.5.02-1.08.52-1.3Z"/>
</svg>