<?xml version="1.0" encoding="UTF-8"?>
<svg id="_图层_19" xmlns="http://www.w3.org/2000/svg" version="1.1" viewBox="0 0 192 192">
  <!-- Generator: Adobe Illustrator 29.6.0, SVG Export Plug-In . SVG Version: 2.1.1 Build 207)  -->
  <path d="M19.4,120.1v-43.96h9.23l9.38,21.06,3.7,9.73h.25c-.24-2.32-.5-4.95-.79-7.88-.29-2.93-.43-5.71-.43-8.35v-14.57h8.62v43.96h-9.23l-9.33-21.18-3.7-9.62h-.25c.2,2.44.45,5.08.74,7.94.29,2.85.43,5.62.43,8.29v14.57h-8.62Z"/>
  <path d="M64.48,81.87c-1.52,0-2.74-.49-3.65-1.48-.91-.98-1.37-2.3-1.37-3.95s.46-2.91,1.37-3.89c.91-.98,2.13-1.47,3.65-1.47s2.7.49,3.63,1.47c.93.98,1.39,2.28,1.39,3.89s-.46,2.97-1.39,3.95c-.93.98-2.14,1.48-3.63,1.48ZM59.97,120.1v-33.57h9.03v33.57h-9.03Z"/>
  <path d="M78.78,120.1v-47.14h8.87v26.2h.25l8.52-12.63h9.89l-10.04,13.98,10.75,19.59h-9.79l-6.24-12.74-3.35,4.42v8.32h-8.87Z"/>
  <path d="M123.92,120.93c-2.43,0-4.73-.7-6.9-2.09-2.16-1.4-3.91-3.41-5.25-6.05-1.34-2.63-2-5.8-2-9.5s.67-6.85,2-9.47c1.34-2.62,3.08-4.62,5.25-6.02,2.16-1.4,4.46-2.09,6.9-2.09,1.83,0,3.58.39,5.27,1.18,1.69.79,3.2,1.94,4.51,3.45,1.32,1.51,2.37,3.35,3.14,5.52.78,2.16,1.17,4.64,1.17,7.43,0,3.7-.67,6.86-2,9.5-1.34,2.64-3.08,4.65-5.22,6.05-2.15,1.4-4.44,2.09-6.87,2.09ZM123.92,112.43c1.12,0,2.04-.37,2.76-1.12.73-.75,1.26-1.81,1.6-3.19.34-1.38.51-2.99.51-4.84s-.17-3.45-.51-4.81c-.34-1.36-.87-2.41-1.6-3.16-.73-.75-1.65-1.12-2.76-1.12s-2.04.37-2.76,1.12c-.73.75-1.27,1.8-1.62,3.16-.36,1.36-.53,2.96-.53,4.81s.18,3.46.53,4.84c.35,1.38.9,2.44,1.62,3.19.73.75,1.65,1.12,2.76,1.12Z"/>
  <path d="M146.23,120.1v-33.57h7.35l.66,4.19h.15c1.18-1.38,2.53-2.56,4.03-3.54,1.5-.98,3.24-1.48,5.2-1.48,3.14,0,5.43,1.22,6.85,3.66,1.42,2.44,2.13,5.76,2.13,9.97v20.77h-9.03v-19.47c0-2.32-.27-3.89-.81-4.72-.54-.83-1.39-1.24-2.54-1.24-1.01,0-1.88.26-2.59.77-.71.51-1.5,1.26-2.38,2.24v22.42h-9.03Z"/>
</svg>