<?xml version="1.0" encoding="UTF-8"?>
<svg id="_图层_5" data-name="图层 5" xmlns="http://www.w3.org/2000/svg" viewBox="0 0 192 192">
  <defs>
    <style>
      .cls-1 {
        fill: #000;
        stroke-width: 0px;
      }
    </style>
  </defs>
  <path class="cls-1" d="M68.34,63.75c-.2,0-.35-.08-.45-.23s-.15-.28-.15-.38v-5.43c0-.1.05-.2.15-.3s.25-.15.45-.15h60.43l-6.48,6.48h-53.95ZM140.08,45.81l-6.33,6.33h-65.41c-.2,0-.35-.05-.45-.15-.1-.1-.15-.25-.15-.45v-5.12c0-.2.05-.35.15-.45s.25-.15.45-.15h71.74,0ZM151.39,34.51l-6.48,6.48h-76.56c-.2,0-.35-.08-.45-.23s-.15-.28-.15-.38v-5.27c0-.2.05-.35.15-.45.1-.1.25-.15.45-.15h83.04,0ZM151.39,86.66c.1,0,.23.05.38.15s.23.25.23.45v42.8l-6.18,6.18v-48.98c0-.2.05-.35.15-.45s.25-.15.45-.15h4.97,0ZM140.53,86.66c.2,0,.35.05.45.15.1.1.15.25.15.45v53.65l-6.18,6.18v-59.83c0-.2.05-.35.15-.45s.25-.15.45-.15h4.97ZM129.68,86.66c.2,0,.35.05.45.15s.15.25.15.45v64.5l-5.73,5.73c-.3-.1-.45-.25-.45-.45,0,.1-.05.2-.15.3-.1.1-.25.15-.45.15H40.31l6.48-6.18h76.71c.2,0,.35.05.45.15s.15.25.15.45v-6.18c0,.2-.05.35-.15.45s-.25.15-.45.15H51.62l6.48-6.48h65.41c.2,0,.35.05.45.15s.15.25.15.45v-6.18c0,.2-.05.35-.15.45s-.25.15-.45.15h-60.59l6.63-6.48h54.1c.1,0,.2.05.3.15s.15.25.15.45v-41.75c0-.2.08-.35.23-.45s.28-.15.38-.15h4.97,0ZM46.04,83.49l-6.03-6.18v-13.26c0-.2.05-.35.15-.45s.2-.15.3-.15h4.97c.2,0,.35.05.45.15s.15.25.15.45v19.44ZM57.04,94.34l-6.18-6.18v-24.11c0-.3.15-.5.45-.6h4.97c.2,0,.35.05.45.15.1.1.15.25.15.45,0,0,.15,30.29.15,30.29ZM67.14,104.59l-5.58-5.58v-34.96c0-.2.05-.35.15-.45s.25-.15.45-.15h4.97c.2,0,.35.05.45.15s.15.25.15.45v22.61h53.2v6.18h-53.2v6.18h53.35v6.03h-53.35l-.6-.45h0Z"/>
</svg>