<?xml version="1.0" encoding="UTF-8"?>
<svg id="_图层_5" data-name="图层 5" xmlns="http://www.w3.org/2000/svg" viewBox="0 0 192 192">
  <defs>
    <style>
      .cls-1 {
        fill: none;
        stroke: #000;
        stroke-miterlimit: 10;
        stroke-width: 8px;
      }

      .cls-2 {
        fill: #0d0d0d;
        stroke-width: 0px;
      }
    </style>
  </defs>
  <path class="cls-1" d="M70.3,23.66l-6.1,34.54c-11.95,8.8-19.6,22.42-19.6,37.8s7.65,28.99,19.6,37.8l6.1,34.54h51.4l6.1-34.54c11.95-8.8,19.6-22.48,19.6-37.8s-7.65-28.99-19.6-37.8l-6.1-34.54h-51.4ZM96.1,60.79c19.45,0,35.21,15.77,35.21,35.21s-15.77,35.21-35.21,35.21-35.21-15.77-35.21-35.21,15.77-35.21,35.21-35.21Z"/>
  <path class="cls-2" d="M92.46,76.29c-1.62,0-3.24.62-4.48,1.86l-7.57,7.57,2.97,3h-5.97l-1.5,1.49,7.48,7.57,1.5-1.5v-6.07l3.08,2.99,1.53-1.49,3.76,3.78-15.75,15.73,4.49,4.49,24.22-24.11c.7.3,1.59.41,2.42.41,4.15,0,7.44-3.29,7.44-7.38,0-1.34-.3-2.4-.89-3.4l-5.67,5.67-3.19-3.19,5.67-5.67c-1-.6-2.11-.89-3.36-.89-4.12,0-7.44,3.29-7.44,7.48,0,.79.12,1.68.42,2.38l-3.87,4-3.8-3.79,1.51-1.51-3-2.97,4.49-4.6c-1.24-1.24-2.87-1.86-4.49-1.86h0Z"/>
  <polygon class="cls-2" points="104.27 98.42 99.78 103.01 112.54 115.77 117.03 111.17 104.27 98.42"/>
</svg>