<?xml version="1.0" encoding="UTF-8"?>
<svg id="_图层_8" xmlns="http://www.w3.org/2000/svg" version="1.1" viewBox="0 0 192 192">
  <!-- Generator: Adobe Illustrator 29.6.0, SVG Export Plug-In . SVG Version: 2.1.1 Build 207)  -->
  <defs>
    <style>
      .st0 {
        fill: none;
        stroke: #000;
        stroke-miterlimit: 10;
        stroke-width: 10px;
      }
    </style>
  </defs>
  <path class="st0" d="M75.54,132.65c13.87,3.29,31.65,2.13,54.25-7.05,1.75-.71,3.52.98,2.85,2.75-2.96,7.77-9.93,23.2-20.6,29.9-26.98,16.92-69.47,9-85.73-19.07-4.62-7.98-12.12-30.28-.13-63.66.4-1.05,5.56,30.14,28.84,47.52,1.7,1.27,2.56,3.36,2.18,5.45l-1.54,8.51c-.32,1.78,1.29,3.31,3.05,2.87,3.73-.93,9.45-2.84,13.28-6.34.95-.87,2.29-1.18,3.54-.89h0ZM138.66,61.82c26.27,9.54,40.8,37.62,33.39,64.53-2.61,8.83-7.89,26.5-40.36,40.73-1.71.76,49.91-62.75-24.01-102.02-1.64-.87-1.32-3.34.5-3.74,9.59-2.91,12.17-3.41,21.21-2.11,1.06.15,2.12.39,3.14.71l6.13,1.9ZM49.49,95.68c-3.53-4.42-10.77-15.27-10.26-29.46,3.3-28.33,27.14-49.82,55.7-50.21,9.29.07,31.1,3.9,50.64,27.02h0c1.21,1.47-69.92-18.5-88.8,55.4-.19.75-3.97.93-4.46.32l-2.82-3.07Z"/>
</svg>