<?xml version="1.0" encoding="UTF-8"?>
<svg id="_图层_13" data-name="图层 13" xmlns="http://www.w3.org/2000/svg" viewBox="0 0 192 192">
  <defs>
    <style>
      .cls-1 {
        fill: #141414;
        stroke: #000;
        stroke-miterlimit: 10;
        stroke-width: 3px;
      }
    </style>
  </defs>
  <path class="cls-1" d="M122.17,69.83c-3.53-26.41-12.46-48.48-26.17-48.48s-22.63,22.06-26.17,48.48c-26.41,3.53-48.48,12.45-48.48,26.17s22.06,22.63,48.48,26.17c3.53,26.41,12.45,48.48,26.17,48.48s22.63-22.06,26.17-48.48c26.42-3.53,48.48-12.45,48.48-26.17s-22.06-22.64-48.48-26.17ZM68.97,114.46c-25.3-3.66-40.06-12.02-40.06-18.47s14.76-14.81,40.06-18.47c-.56,6.14-.84,12.3-.85,18.47,0,6.16.29,12.38.85,18.47h0ZM96,28.91c6.45,0,14.81,14.76,18.47,40.06-6.14-.56-12.3-.84-18.47-.85-6.16,0-12.38.29-18.47.85,3.65-25.3,12.02-40.06,18.46-40.06h0ZM123.03,114.46c-2.55.33-5.09.63-7.65.91-.12,1.3-.73,6.4-.91,7.65-3.66,25.3-12.02,40.06-18.47,40.06s-14.81-14.76-18.47-40.06c-.33-2.55-.64-5.09-.91-7.65-.63-6.44-.94-12.91-.94-19.38,0-6.93.36-13.38.94-19.38,6.44-.63,12.91-.95,19.38-.94,6.93,0,13.37.36,19.37.94,1.3.13,6.4.73,7.65.91,25.31,3.66,40.07,12.03,40.07,18.47,0,6.44-14.77,14.82-40.07,18.47h0s0,0,0,0Z"/>
</svg>