<?xml version="1.0" encoding="UTF-8"?>
<svg id="_图层_18" data-name=" 图层 18" xmlns="http://www.w3.org/2000/svg" version="1.1" viewBox="0 0 192 192">
  <defs>
    <style>
      .cls-1 {
        fill: #000;
        stroke-width: 0px;
      }

      .cls-2 {
        fill: none;
        stroke: #000;
        stroke-miterlimit: 10;
        stroke-width: 12px;
      }
    </style>
  </defs>
  <path class="cls-2" d="M61.5,128.3s-.7-15-8.7-22.4c-6.8-6.3-24.9-27.3-30.2-33.5-.8-1-.8-2.5,0-3.4l24.7-28.1s31.1-34.6,68.1-10.2c4.8,3.2,9.2,7.2,13.2,11.6l37.7,42.1c3.6,4,4.7,10.1,2.7,15.3-8.2,21.4-34.9,73.4-100.3,70.2-4.4-.2-7.9-4.3-7.8-9.3l.5-32.3Z"/>
  <ellipse class="cls-1" cx="73" cy="59.2" rx="10.1" ry="11.3"/>
  <g>
    <path class="cls-1" d="M108.9,126.7h29c2.2,0,3.9,2,3.9,4.4v2.2c0,2.4-1.8,4.4-3.9,4.4h-29c-2.2,0-3.9-2-3.9-4.4v-2.2c0-2.4,1.8-4.4,3.9-4.4Z"/>
    <path class="cls-1" d="M108.9,110.3h29c2.2,0,3.9,2,3.9,4.4v2.2c0,2.4-1.8,4.4-3.9,4.4h-29c-2.2,0-3.9-2-3.9-4.4v-2.2c0-2.4,1.8-4.4,3.9-4.4Z"/>
    <path class="cls-1" d="M128.3,116.8v32.5c0,2.4-1.8,4.4-3.9,4.4h-1.9c-2.2,0-3.9-2-3.9-4.4v-32.5c0-2.4,1.8-4.4,3.9-4.4h1.9c2.2,0,3.9,2,3.9,4.4Z"/>
    <path class="cls-1" d="M116.8,95.3l7.8,8.7c1.6,1.8,1.6,4.8,0,6.6l-.5.6c-1.6,1.8-4.3,1.8-5.9,0l-7.8-8.7c-1.6-1.8-1.6-4.8,0-6.6l.5-.6c1.6-1.8,4.3-1.8,5.9,0Z"/>
    <path class="cls-1" d="M137.4,102.5l-7.8,8.7c-1.6,1.8-4.3,1.8-5.9,0l-.5-.6c-1.6-1.8-1.6-4.8,0-6.6l7.8-8.7c1.6-1.8,4.3-1.8,5.9,0l.5.6c1.6,1.8,1.6,4.8,0,6.6Z"/>
  </g>
</svg>