<?xml version="1.0" encoding="UTF-8"?>
<svg id="_图层_15" data-name=" 图层 15" xmlns="http://www.w3.org/2000/svg" version="1.1" viewBox="0 0 192 192">
  <defs>
    <style>
      .cls-1 {
        stroke-width: .2px;
      }

      .cls-1, .cls-2 {
        fill: #000;
        stroke: #000;
        stroke-miterlimit: 10;
      }

      .cls-2 {
        stroke-width: .5px;
      }
    </style>
  </defs>
  <path class="cls-1" d="M131.5,153.8c-31,10.3-65-4.8-76-33.8-3.4-8.9-4.2-18.1-2.8-26.9h0c0-.1,0-.2,0-.3h0c.3-2.1.1-4.4-.7-6.5-2.8-7.3-11.3-11.1-19.2-8.5-5.8,1.9-9.5,6.8-9.9,12.2-6,37,20.5,72.1,60.2,78.9,40.5,7,79.4-18.1,86.9-55.9h-.2c-4.1,18.3-18.1,34.1-38.3,40.8h0Z"/>
  <path class="cls-2" d="M110.3,134.8c0-4.5-4.5-9-9-9s-9,4.5-9,9,4.5,9,9,9,9-4.5,9-9ZM109.3,23.2c-40.5-7.2-79.5,17.6-87.3,55.3h.2c4.3-18.2,18.3-34,38.6-40.6,31.1-10.1,65,5.2,75.8,34.2,3.3,9,4.1,18.2,2.6,26.9,0,0,0,0,0,0,0,0,0,.2,0,.3h0c-.3,2.1-.1,4.4.7,6.5,2.7,7.3,11.3,11.2,19.1,8.6,5.8-1.9,9.6-6.8,10-12.1,6.2-37-20-72.2-59.7-79.2h0Z"/>
</svg>