<?xml version="1.0" encoding="UTF-8"?>
<svg id="_图层_1" data-name="图层 1" xmlns="http://www.w3.org/2000/svg" version="1.1" viewBox="0 0 192 192">
  <defs>
    <style>
      .cls-1 {
        fill: #000;
        stroke-width: 0px;
      }

      .cls-2, .cls-3 {
        fill: none;
        stroke: #000;
        stroke-linecap: round;
        stroke-width: 16px;
      }

      .cls-3 {
        stroke-linejoin: round;
      }
    </style>
  </defs>
  <path class="cls-2" d="M40.8,108.7h108.4c4.4,0,8,4.1,8,9.1v25c0,5-3.6,9.1-8,9.1h-72.5"/>
  <path class="cls-3" d="M84.6,35h-35.9c-4.4,0-8,3.4-8,7.6v29c0,4.2,3.6,7.6,8,7.6h35.9"/>
  <path class="cls-3" d="M114.2,35h29.2c5.8,0,8.8,0,10.8,1.5.6.4,1.1.9,1.5,1.5,1.5,2,1.5,4.9,1.5,10.7v16.6c0,5.8,0,8.7-1.5,10.7-.4.6-.9,1.1-1.5,1.5-2,1.5-4.9,1.5-10.8,1.5h-29.2"/>
  <circle class="cls-1" cx="46.3" cy="145.5" r="11.5"/>
</svg>