<?xml version="1.0" encoding="UTF-8"?>
<svg id="_图层_9" data-name="图层 9" xmlns="http://www.w3.org/2000/svg" viewBox="0 0 192 192">
  <defs>
    <style>
      .cls-1 {
        fill: #000;
        stroke: #000;
        stroke-miterlimit: 10;
        stroke-width: 4px;
      }
    </style>
  </defs>
  <path class="cls-1" d="M30.01,165.26c-.52,0-1.05-.17-1.57-.35-1.74-.87-2.27-2.96-1.39-4.7.17-.17,7.84-15.32,1.22-29.24-11.85-24.37-6.62-54.13,13.42-74.15,12.55-12.53,29.11-19.5,46.9-19.5s34.34,6.96,46.9,19.5c1.39,1.39,1.39,3.48,0,4.87s-3.49,1.39-4.88,0c-11.16-11.14-26.15-17.41-41.84-17.41s-30.68,6.09-41.84,17.41c-17.78,17.75-22.66,44.39-12.03,66.14,8.37,17.23-.87,34.81-1.22,35.51-1.22,1.22-2.44,1.91-3.66,1.91Z"/>
  <path class="cls-1" d="M88.59,170c-9.41,0-18.65-2.09-27.37-6.27-13.95-6.79-29.11,1.04-29.29,1.22-1.74.87-3.84.17-4.71-1.39-.87-1.74-.35-3.83,1.39-4.7.7-.35,18.3-9.57,35.56-1.22,21.79,10.62,48.46,5.74,66.25-12.01,11.16-11.14,17.43-26.11,17.43-41.78s-5.93-31.03-17.26-42.17c-1.39-1.39-1.57-3.09-.17-4.48s3.84-1.59,5.24-.19c12.55,12.53,19.17,29.26,19.17,47.02s-6.97,34.29-19.53,46.82c-12.73,12.36-29.64,19.15-46.72,19.15h0Z"/>
  <path class="cls-1" d="M141.06,71.78c-1.22,0-2.44-.7-3.14-1.91-.87-1.74-.17-3.83,1.57-4.7.17-.17.7-.7,1.05-.87l10.11-10.1c3.49-3.48,3.49-9.23,0-12.88-1.74-1.74-4.01-2.61-6.45-2.61s-4.71.87-6.45,2.61l-10.11,10.1c-.52.52-1.05,1.04-1.39,1.74-1.22,1.57-3.31,1.91-4.88.7s-1.92-3.31-.7-4.87c.52-.7,1.22-1.57,2.09-2.44l10.11-10.1c2.96-2.96,6.97-4.7,11.33-4.7s8.37,1.74,11.33,4.7c6.28,6.27,6.28,16.36,0,22.63l-10.11,10.1c-.7.7-1.55,3.2-2.77,3.89-.52.17-1.07-1.28-1.59-1.28h0Z"/>
  <path class="cls-1" d="M153.96,86.58h-6.1c-1.92,0-3.49-1.57-3.49-3.48s1.57-3.48,3.49-3.48h6.1c5.06,0,9.07-4,9.07-9.05s-4.01-9.05-9.07-9.05h-2.27c-1.92,0-3.49-1.57-3.49-3.48s1.57-3.48,3.49-3.48h2.27c8.89,0,16.04,7.14,16.04,16.01s-7.15,16.01-16.04,16.01ZM108.81,47.59c-1.92,0-3.49-1.57-3.49-3.48v-6.09c0-8.88,7.15-16.01,16.04-16.01s16.04,7.14,16.04,16.01v2.26c0,1.91-1.57,3.48-3.49,3.48s-3.49-1.57-3.49-3.48v-2.26c0-5.05-4.01-9.05-9.07-9.05s-9.07,4-9.07,9.05v6.09c0,1.91-1.57,3.48-3.49,3.48h0ZM51.63,89.89c-.52,0-1.05-.35-1.39-.7-5.93-8.88-13.25-12.18-16.74-13.93l-.7-.35c-.87-.35-1.22-1.39-.87-2.26.35-.87,1.39-1.22,2.27-.87l.7.35c3.84,1.74,11.68,5.4,18.13,15.14.52.87.35,1.91-.52,2.44-.17,0-.52.17-.87.17ZM51.63,124.52c-.52,0-1.05-.35-1.39-.7-6.28-9.4-15.69-14.1-23.88-17.41-.87-.35-1.39-1.39-1.05-2.26.35-.87,1.39-1.39,2.27-1.04,8.89,3.48,18.83,8.53,25.63,18.8.52.87.35,1.91-.52,2.44-.35,0-.7.17-1.05.17h0ZM88.06,167.69c-.87,0-1.57-.7-1.74-1.57-1.22-8.36-3.49-18.97-11.16-27.5-.7-.7-.52-1.74.17-2.44.7-.7,1.74-.52,2.44.17,8.37,9.23,10.98,20.54,12.2,29.24.17.87-.52,1.91-1.57,1.91-.17.17-.35.17-.35.17h0Z"/>
</svg>